<svg width="378" height="159" viewBox="0 0 378 159" fill="none" xmlns="http://www.w3.org/2000/svg">
<path d="M0 94.9479L21.8524 159L327.786 153.725L378 114.917L327.786 72.718L307.328 34.2867L200.391 13.1872L119.956 0L51.6089 34.2867L0 94.9479Z" fill="#787878"/>
<path d="M103.383 49.16C102.103 49.16 101.003 48.8 100.083 48.08C99.1834 47.36 98.4934 46.36 98.0134 45.08C97.5334 43.78 97.2934 42.3 97.2934 40.64C97.2934 39.4 97.5034 38.12 97.9234 36.8C98.3634 35.46 99.0634 34.18 100.023 32.96C100.983 31.74 102.263 30.68 103.863 29.78C105.463 28.88 107.433 28.25 109.773 27.89L110.283 28.67L109.293 31.25C108.973 31.21 108.663 31.18 108.363 31.16C108.083 31.14 107.803 31.13 107.523 31.13C106.043 31.13 104.813 31.38 103.833 31.88C102.853 32.36 102.083 33 101.523 33.8C100.963 34.58 100.563 35.43 100.323 36.35C100.083 37.27 99.9634 38.15 99.9634 38.99C99.9634 40.73 100.143 42.16 100.503 43.28C100.883 44.4 101.373 45.23 101.973 45.77C102.573 46.29 103.193 46.55 103.833 46.55C105.233 46.55 106.383 46 107.283 44.9C108.203 43.78 108.973 42.13 109.593 39.95C109.633 39.79 109.703 39.71 109.803 39.71C109.903 39.71 110.033 39.74 110.193 39.8C110.373 39.86 110.553 39.97 110.733 40.13C110.453 42.03 109.923 43.66 109.143 45.02C108.383 46.36 107.493 47.39 106.473 48.11C105.453 48.81 104.423 49.16 103.383 49.16ZM119.262 49.22C117.942 49.22 116.722 48.88 115.602 48.2C114.502 47.5 113.612 46.49 112.932 45.17C112.272 43.85 111.942 42.23 111.942 40.31C111.942 39.05 112.142 37.75 112.542 36.41C112.962 35.07 113.652 33.81 114.612 32.63C115.572 31.43 116.852 30.41 118.452 29.57C120.072 28.73 122.082 28.18 124.482 27.92L124.992 28.67L124.122 30.41C124.762 30.95 125.342 31.68 125.862 32.6C126.382 33.5 126.792 34.52 127.092 35.66C127.412 36.78 127.572 37.95 127.572 39.17C127.572 40.37 127.422 41.57 127.122 42.77C126.822 43.95 126.342 45.03 125.682 46.01C125.042 46.99 124.192 47.77 123.132 48.35C122.072 48.93 120.782 49.22 119.262 49.22ZM120.012 46.73C121.272 46.69 122.322 46.35 123.162 45.71C124.002 45.07 124.622 44.23 125.022 43.19C125.442 42.15 125.652 41.01 125.652 39.77C125.652 38.85 125.532 37.83 125.292 36.71C125.052 35.59 124.682 34.5 124.182 33.44C123.702 32.36 123.092 31.45 122.352 30.71C119.732 31.09 117.822 32.06 116.622 33.62C115.422 35.18 114.822 37.13 114.822 39.47C114.822 40.99 115.062 42.3 115.542 43.4C116.042 44.48 116.682 45.31 117.462 45.89C118.262 46.45 119.112 46.73 120.012 46.73ZM130.784 49.04C130.644 49.04 130.554 49.03 130.514 49.01C130.474 48.99 130.454 48.96 130.454 48.92C130.434 48.92 130.524 48.56 130.724 47.84C130.924 47.1 131.124 46.02 131.324 44.6C131.544 43.16 131.654 41.39 131.654 39.29C131.654 37.93 131.594 36.64 131.474 35.42C131.374 34.18 131.244 33.09 131.084 32.15C130.924 31.21 130.784 30.47 130.664 29.93C130.564 29.39 130.514 29.12 130.514 29.12L133.754 27.89L134.534 28.37C135.134 30.45 135.824 32.47 136.604 34.43C137.384 36.39 138.204 38.21 139.064 39.89C139.924 41.57 140.754 43.05 141.554 44.33C141.414 43.35 141.314 42.37 141.254 41.39C141.194 40.41 141.164 39.43 141.164 38.45C141.164 36.79 141.254 35.12 141.434 33.44C141.614 31.76 141.864 30.07 142.184 28.37L142.934 27.89L145.214 29.12C144.754 30.28 144.374 31.62 144.074 33.14C143.794 34.66 143.594 36.26 143.474 37.94C143.354 39.6 143.294 41.24 143.294 42.86C143.294 43.98 143.324 45.06 143.384 46.1C143.444 47.12 143.514 48.07 143.594 48.95C143.594 49.01 143.504 49.04 143.324 49.04C143.184 49.04 142.984 49.01 142.724 48.95C142.464 48.89 142.284 48.78 142.184 48.62C140.624 46.32 139.154 43.99 137.774 41.63C136.414 39.27 135.144 36.78 133.964 34.16C133.964 35.84 133.894 37.53 133.754 39.23C133.614 40.91 133.414 42.54 133.154 44.12C132.894 45.7 132.594 47.15 132.254 48.47C132.074 48.65 131.824 48.79 131.504 48.89C131.184 48.99 130.944 49.04 130.784 49.04ZM151.84 49.19C151.7 49.19 151.63 49.16 151.63 49.1C151.89 47.56 152.06 46.07 152.14 44.63C152.24 43.19 152.29 41.81 152.29 40.49C152.29 39.89 152.27 39.09 152.23 38.09C152.21 37.09 152.17 36.05 152.11 34.97C152.07 33.87 152.01 32.87 151.93 31.97C151.67 31.99 151.41 32 151.15 32C150.91 32 150.66 32 150.4 32C149.34 32 148.27 31.91 147.19 31.73L146.71 30.95L147.85 28.37C148.57 28.75 149.39 29.02 150.31 29.18C151.23 29.32 152.23 29.39 153.31 29.39C154.59 29.39 155.82 29.3 157 29.12C158.18 28.94 159.13 28.76 159.85 28.58C159.93 28.58 159.97 28.67 159.97 28.85C159.97 28.99 159.93 29.19 159.85 29.45C159.77 29.69 159.66 29.87 159.52 29.99C158.74 30.31 157.97 30.6 157.21 30.86C156.45 31.12 155.69 31.34 154.93 31.52C154.87 32.72 154.79 34.1 154.69 35.66C154.61 37.2 154.49 38.79 154.33 40.43C154.19 42.05 154.02 43.59 153.82 45.05C153.62 46.51 153.39 47.75 153.13 48.77C152.99 48.91 152.78 49.01 152.5 49.07C152.22 49.15 152 49.19 151.84 49.19ZM157.498 49.22C157.478 49.22 157.418 49.21 157.318 49.19C157.198 49.19 157.138 49.17 157.138 49.13C157.538 48.35 157.998 47.38 158.518 46.22C159.038 45.04 159.578 43.78 160.138 42.44C159.958 42.4 159.768 42.36 159.568 42.32C159.388 42.28 159.198 42.24 158.998 42.2C158.858 42.04 158.748 41.81 158.668 41.51C158.588 41.19 158.548 40.98 158.548 40.88C158.548 40.74 158.578 40.67 158.638 40.67C158.758 40.67 158.978 40.72 159.298 40.82C159.638 40.92 160.098 41 160.678 41.06C161.218 39.74 161.738 38.4 162.238 37.04C162.758 35.66 163.228 34.34 163.648 33.08C164.068 31.8 164.408 30.65 164.668 29.63L167.968 27.89C168.128 27.89 168.348 27.94 168.628 28.04C168.908 28.12 169.128 28.26 169.288 28.46C169.228 28.98 169.188 29.52 169.168 30.08C169.148 30.62 169.138 31.16 169.138 31.7C169.138 33.34 169.228 34.99 169.408 36.65C169.588 38.29 169.818 39.88 170.098 41.42C170.378 42.94 170.668 44.36 170.968 45.68C171.288 47 171.578 48.15 171.838 49.13C171.838 49.19 171.758 49.22 171.598 49.22C171.298 49.22 171.058 49.18 170.878 49.1C170.698 49.02 170.548 48.91 170.428 48.77C170.108 48.07 169.748 47.16 169.348 46.04C168.968 44.92 168.588 43.71 168.208 42.41C166.848 42.63 165.468 42.74 164.068 42.74C163.688 42.74 163.328 42.74 162.988 42.74C162.648 42.72 162.308 42.7 161.968 42.68C161.508 43.64 161.018 44.62 160.498 45.62C159.978 46.62 159.418 47.67 158.818 48.77C158.658 48.91 158.468 49.02 158.248 49.1C158.028 49.18 157.778 49.22 157.498 49.22ZM162.688 41.15C163.488 41.13 164.318 41.07 165.178 40.97C166.038 40.87 166.878 40.7 167.698 40.46C167.338 39.1 167.018 37.73 166.738 36.35C166.458 34.97 166.258 33.7 166.138 32.54C165.558 34.14 164.988 35.64 164.428 37.04C163.868 38.42 163.288 39.79 162.688 41.15ZM179.907 49.16C178.627 49.16 177.527 48.8 176.607 48.08C175.707 47.36 175.017 46.36 174.537 45.08C174.057 43.78 173.817 42.3 173.817 40.64C173.817 39.4 174.027 38.12 174.447 36.8C174.887 35.46 175.587 34.18 176.547 32.96C177.507 31.74 178.787 30.68 180.387 29.78C181.987 28.88 183.957 28.25 186.297 27.89L186.807 28.67L185.817 31.25C185.497 31.21 185.187 31.18 184.887 31.16C184.607 31.14 184.327 31.13 184.047 31.13C182.567 31.13 181.337 31.38 180.357 31.88C179.377 32.36 178.607 33 178.047 33.8C177.487 34.58 177.087 35.43 176.847 36.35C176.607 37.27 176.487 38.15 176.487 38.99C176.487 40.73 176.667 42.16 177.027 43.28C177.407 44.4 177.897 45.23 178.497 45.77C179.097 46.29 179.717 46.55 180.357 46.55C181.757 46.55 182.907 46 183.807 44.9C184.727 43.78 185.497 42.13 186.117 39.95C186.157 39.79 186.227 39.71 186.327 39.71C186.427 39.71 186.557 39.74 186.717 39.8C186.897 39.86 187.077 39.97 187.257 40.13C186.977 42.03 186.447 43.66 185.667 45.02C184.907 46.36 184.017 47.39 182.997 48.11C181.977 48.81 180.947 49.16 179.907 49.16ZM193.295 49.19C193.155 49.19 193.085 49.16 193.085 49.1C193.345 47.56 193.515 46.07 193.595 44.63C193.695 43.19 193.745 41.81 193.745 40.49C193.745 39.89 193.725 39.09 193.685 38.09C193.665 37.09 193.625 36.05 193.565 34.97C193.525 33.87 193.465 32.87 193.385 31.97C193.125 31.99 192.865 32 192.605 32C192.365 32 192.115 32 191.855 32C190.795 32 189.725 31.91 188.645 31.73L188.165 30.95L189.305 28.37C190.025 28.75 190.845 29.02 191.765 29.18C192.685 29.32 193.685 29.39 194.765 29.39C196.045 29.39 197.275 29.3 198.455 29.12C199.635 28.94 200.585 28.76 201.305 28.58C201.385 28.58 201.425 28.67 201.425 28.85C201.425 28.99 201.385 29.19 201.305 29.45C201.225 29.69 201.115 29.87 200.975 29.99C200.195 30.31 199.425 30.6 198.665 30.86C197.905 31.12 197.145 31.34 196.385 31.52C196.325 32.72 196.245 34.1 196.145 35.66C196.065 37.2 195.945 38.79 195.785 40.43C195.645 42.05 195.475 43.59 195.275 45.05C195.075 46.51 194.845 47.75 194.585 48.77C194.445 48.91 194.235 49.01 193.955 49.07C193.675 49.15 193.455 49.19 193.295 49.19Z" fill="#3A3A3A"/>
</svg>
