<svg width="549" height="277" viewBox="0 0 549 277" fill="none" xmlns="http://www.w3.org/2000/svg">
<path d="M0 170.19L31.738 285L476.07 275.545L549 205.983L476.07 130.344L446.358 61.4573L291.044 23.6374L174.221 0L74.9557 61.4573L0 170.19Z" fill="#787878"/>
<path d="M149.087 74.248C147.423 74.248 145.993 73.78 144.797 72.844C143.627 71.908 142.73 70.608 142.106 68.944C141.482 67.254 141.17 65.33 141.17 63.172C141.17 61.56 141.443 59.896 141.989 58.18C142.561 56.438 143.471 54.774 144.719 53.188C145.967 51.602 147.631 50.224 149.711 49.054C151.791 47.884 154.352 47.065 157.394 46.597L158.057 47.611L156.77 50.965C156.354 50.913 155.951 50.874 155.561 50.848C155.197 50.822 154.833 50.809 154.469 50.809C152.545 50.809 150.946 51.134 149.672 51.784C148.398 52.408 147.397 53.24 146.669 54.28C145.941 55.294 145.421 56.399 145.109 57.595C144.797 58.791 144.641 59.935 144.641 61.027C144.641 63.289 144.875 65.148 145.343 66.604C145.837 68.06 146.474 69.139 147.254 69.841C148.034 70.517 148.84 70.855 149.672 70.855C151.492 70.855 152.987 70.14 154.157 68.71C155.353 67.254 156.354 65.109 157.16 62.275C157.212 62.067 157.303 61.963 157.433 61.963C157.563 61.963 157.732 62.002 157.94 62.08C158.174 62.158 158.408 62.301 158.642 62.509C158.278 64.979 157.589 67.098 156.575 68.866C155.587 70.608 154.43 71.947 153.104 72.883C151.778 73.793 150.439 74.248 149.087 74.248ZM169.729 74.326C168.013 74.326 166.427 73.884 164.971 73C163.541 72.09 162.384 70.777 161.5 69.061C160.642 67.345 160.213 65.239 160.213 62.743C160.213 61.105 160.473 59.415 160.993 57.673C161.539 55.931 162.436 54.293 163.684 52.759C164.932 51.199 166.596 49.873 168.676 48.781C170.782 47.689 173.395 46.974 176.515 46.636L177.178 47.611L176.047 49.873C176.879 50.575 177.633 51.524 178.309 52.72C178.985 53.89 179.518 55.216 179.908 56.698C180.324 58.154 180.532 59.675 180.532 61.261C180.532 62.821 180.337 64.381 179.947 65.941C179.557 67.475 178.933 68.879 178.075 70.153C177.243 71.427 176.138 72.441 174.76 73.195C173.382 73.949 171.705 74.326 169.729 74.326ZM170.704 71.089C172.342 71.037 173.707 70.595 174.799 69.763C175.891 68.931 176.697 67.839 177.217 66.487C177.763 65.135 178.036 63.653 178.036 62.041C178.036 60.845 177.88 59.519 177.568 58.063C177.256 56.607 176.775 55.19 176.125 53.812C175.501 52.408 174.708 51.225 173.746 50.263C170.34 50.757 167.857 52.018 166.297 54.046C164.737 56.074 163.957 58.609 163.957 61.651C163.957 63.627 164.269 65.33 164.893 66.76C165.543 68.164 166.375 69.243 167.389 69.997C168.429 70.725 169.534 71.089 170.704 71.089ZM184.707 74.092C184.525 74.092 184.408 74.079 184.356 74.053C184.304 74.027 184.278 73.988 184.278 73.936C184.252 73.936 184.369 73.468 184.629 72.532C184.889 71.57 185.149 70.166 185.409 68.32C185.695 66.448 185.838 64.147 185.838 61.417C185.838 59.649 185.76 57.972 185.604 56.386C185.474 54.774 185.305 53.357 185.097 52.135C184.889 50.913 184.707 49.951 184.551 49.249C184.421 48.547 184.356 48.196 184.356 48.196L188.568 46.597L189.582 47.221C190.362 49.925 191.259 52.551 192.273 55.099C193.287 57.647 194.353 60.013 195.471 62.197C196.589 64.381 197.668 66.305 198.708 67.969C198.526 66.695 198.396 65.421 198.318 64.147C198.24 62.873 198.201 61.599 198.201 60.325C198.201 58.167 198.318 55.996 198.552 53.812C198.786 51.628 199.111 49.431 199.527 47.221L200.502 46.597L203.466 48.196C202.868 49.704 202.374 51.446 201.984 53.422C201.62 55.398 201.36 57.478 201.204 59.662C201.048 61.82 200.97 63.952 200.97 66.058C200.97 67.514 201.009 68.918 201.087 70.27C201.165 71.596 201.256 72.831 201.36 73.975C201.36 74.053 201.243 74.092 201.009 74.092C200.827 74.092 200.567 74.053 200.229 73.975C199.891 73.897 199.657 73.754 199.527 73.546C197.499 70.556 195.588 67.527 193.794 64.459C192.026 61.391 190.375 58.154 188.841 54.748C188.841 56.932 188.75 59.129 188.568 61.339C188.386 63.523 188.126 65.642 187.788 67.696C187.45 69.75 187.06 71.635 186.618 73.351C186.384 73.585 186.059 73.767 185.643 73.897C185.227 74.027 184.915 74.092 184.707 74.092ZM212.081 74.287C211.899 74.287 211.808 74.248 211.808 74.17C212.146 72.168 212.367 70.231 212.471 68.359C212.601 66.487 212.666 64.693 212.666 62.977C212.666 62.197 212.64 61.157 212.588 59.857C212.562 58.557 212.51 57.205 212.432 55.801C212.38 54.371 212.302 53.071 212.198 51.901C211.86 51.927 211.522 51.94 211.184 51.94C210.872 51.94 210.547 51.94 210.209 51.94C208.831 51.94 207.44 51.823 206.036 51.589L205.412 50.575L206.894 47.221C207.83 47.715 208.896 48.066 210.092 48.274C211.288 48.456 212.588 48.547 213.992 48.547C215.656 48.547 217.255 48.43 218.789 48.196C220.323 47.962 221.558 47.728 222.494 47.494C222.598 47.494 222.65 47.611 222.65 47.845C222.65 48.027 222.598 48.287 222.494 48.625C222.39 48.937 222.247 49.171 222.065 49.327C221.051 49.743 220.05 50.12 219.062 50.458C218.074 50.796 217.086 51.082 216.098 51.316C216.02 52.876 215.916 54.67 215.786 56.698C215.682 58.7 215.526 60.767 215.318 62.899C215.136 65.005 214.915 67.007 214.655 68.905C214.395 70.803 214.096 72.415 213.758 73.741C213.576 73.923 213.303 74.053 212.939 74.131C212.575 74.235 212.289 74.287 212.081 74.287ZM219.436 74.326C219.41 74.326 219.332 74.313 219.202 74.287C219.046 74.287 218.968 74.261 218.968 74.209C219.488 73.195 220.086 71.934 220.762 70.426C221.438 68.892 222.14 67.254 222.868 65.512C222.634 65.46 222.387 65.408 222.127 65.356C221.893 65.304 221.646 65.252 221.386 65.2C221.204 64.992 221.061 64.693 220.957 64.303C220.853 63.887 220.801 63.614 220.801 63.484C220.801 63.302 220.84 63.211 220.918 63.211C221.074 63.211 221.36 63.276 221.776 63.406C222.218 63.536 222.816 63.64 223.57 63.718C224.272 62.002 224.948 60.26 225.598 58.492C226.274 56.698 226.885 54.982 227.431 53.344C227.977 51.68 228.419 50.185 228.757 48.859L233.047 46.597C233.255 46.597 233.541 46.662 233.905 46.792C234.269 46.896 234.555 47.078 234.763 47.338C234.685 48.014 234.633 48.716 234.607 49.444C234.581 50.146 234.568 50.848 234.568 51.55C234.568 53.682 234.685 55.827 234.919 57.985C235.153 60.117 235.452 62.184 235.816 64.186C236.18 66.162 236.557 68.008 236.947 69.724C237.363 71.44 237.74 72.935 238.078 74.209C238.078 74.287 237.974 74.326 237.766 74.326C237.376 74.326 237.064 74.274 236.83 74.17C236.596 74.066 236.401 73.923 236.245 73.741C235.829 72.831 235.361 71.648 234.841 70.192C234.347 68.736 233.853 67.163 233.359 65.473C231.591 65.759 229.797 65.902 227.977 65.902C227.483 65.902 227.015 65.902 226.573 65.902C226.131 65.876 225.689 65.85 225.247 65.824C224.649 67.072 224.012 68.346 223.336 69.646C222.66 70.946 221.932 72.311 221.152 73.741C220.944 73.923 220.697 74.066 220.411 74.17C220.125 74.274 219.8 74.326 219.436 74.326ZM226.183 63.835C227.223 63.809 228.302 63.731 229.42 63.601C230.538 63.471 231.63 63.25 232.696 62.938C232.228 61.17 231.812 59.389 231.448 57.595C231.084 55.801 230.824 54.15 230.668 52.642C229.914 54.722 229.173 56.672 228.445 58.492C227.717 60.286 226.963 62.067 226.183 63.835ZM248.567 74.248C246.903 74.248 245.473 73.78 244.277 72.844C243.107 71.908 242.21 70.608 241.586 68.944C240.962 67.254 240.65 65.33 240.65 63.172C240.65 61.56 240.923 59.896 241.469 58.18C242.041 56.438 242.951 54.774 244.199 53.188C245.447 51.602 247.111 50.224 249.191 49.054C251.271 47.884 253.832 47.065 256.874 46.597L257.537 47.611L256.25 50.965C255.834 50.913 255.431 50.874 255.041 50.848C254.677 50.822 254.313 50.809 253.949 50.809C252.025 50.809 250.426 51.134 249.152 51.784C247.878 52.408 246.877 53.24 246.149 54.28C245.421 55.294 244.901 56.399 244.589 57.595C244.277 58.791 244.121 59.935 244.121 61.027C244.121 63.289 244.355 65.148 244.823 66.604C245.317 68.06 245.954 69.139 246.734 69.841C247.514 70.517 248.32 70.855 249.152 70.855C250.972 70.855 252.467 70.14 253.637 68.71C254.833 67.254 255.834 65.109 256.64 62.275C256.692 62.067 256.783 61.963 256.913 61.963C257.043 61.963 257.212 62.002 257.42 62.08C257.654 62.158 257.888 62.301 258.122 62.509C257.758 64.979 257.069 67.098 256.055 68.866C255.067 70.608 253.91 71.947 252.584 72.883C251.258 73.793 249.919 74.248 248.567 74.248ZM265.972 74.287C265.79 74.287 265.699 74.248 265.699 74.17C266.037 72.168 266.258 70.231 266.362 68.359C266.492 66.487 266.557 64.693 266.557 62.977C266.557 62.197 266.531 61.157 266.479 59.857C266.453 58.557 266.401 57.205 266.323 55.801C266.271 54.371 266.193 53.071 266.089 51.901C265.751 51.927 265.413 51.94 265.075 51.94C264.763 51.94 264.438 51.94 264.1 51.94C262.722 51.94 261.331 51.823 259.927 51.589L259.303 50.575L260.785 47.221C261.721 47.715 262.787 48.066 263.983 48.274C265.179 48.456 266.479 48.547 267.883 48.547C269.547 48.547 271.146 48.43 272.68 48.196C274.214 47.962 275.449 47.728 276.385 47.494C276.489 47.494 276.541 47.611 276.541 47.845C276.541 48.027 276.489 48.287 276.385 48.625C276.281 48.937 276.138 49.171 275.956 49.327C274.942 49.743 273.941 50.12 272.953 50.458C271.965 50.796 270.977 51.082 269.989 51.316C269.911 52.876 269.807 54.67 269.677 56.698C269.573 58.7 269.417 60.767 269.209 62.899C269.027 65.005 268.806 67.007 268.546 68.905C268.286 70.803 267.987 72.415 267.649 73.741C267.467 73.923 267.194 74.053 266.83 74.131C266.466 74.235 266.18 74.287 265.972 74.287Z" fill="#3A3A3A"/>
</svg>
