<svg width="1278" height="146" viewBox="0 0 1278 146" fill="none" xmlns="http://www.w3.org/2000/svg">
<path d="M21.6506 4.25L43.3013 147.5H0L21.6506 4.25Z" fill="#364628" fill-opacity="0.51"/>
<path d="M65.1703 3L86.821 146.25H43.5197L65.1703 3Z" fill="#364628" fill-opacity="0.51"/>
<path d="M108.17 3L129.821 146.25H86.5197L108.17 3Z" fill="#364628" fill-opacity="0.51"/>
<path d="M151.17 4L172.821 147.25H129.52L151.17 4Z" fill="#364628" fill-opacity="0.51"/>
<path d="M195.17 5.25L216.821 148.5H173.52L195.17 5.25Z" fill="#364628" fill-opacity="0.51"/>
<path d="M238.69 4L260.341 147.25H217.039L238.69 4Z" fill="#364628" fill-opacity="0.51"/>
<path d="M281.69 4L303.341 147.25H260.039L281.69 4Z" fill="#364628" fill-opacity="0.51"/>
<path d="M324.69 5L346.341 148.25H303.039L324.69 5Z" fill="#364628" fill-opacity="0.51"/>
<path d="M369.17 1.25L390.821 144.5H347.52L369.17 1.25Z" fill="#364628" fill-opacity="0.51"/>
<path d="M412.69 0L434.341 143.25H391.039L412.69 0Z" fill="#364628" fill-opacity="0.51"/>
<path d="M455.69 0L477.341 143.25H434.039L455.69 0Z" fill="#364628" fill-opacity="0.51"/>
<path d="M498.69 1L520.341 144.25H477.039L498.69 1Z" fill="#364628" fill-opacity="0.51"/>
<path d="M542.69 2.25L564.341 145.5H521.039L542.69 2.25Z" fill="#364628" fill-opacity="0.51"/>
<path d="M586.21 1L607.86 144.25H564.559L586.21 1Z" fill="#364628" fill-opacity="0.51"/>
<path d="M629.21 1L650.86 144.25H607.559L629.21 1Z" fill="#364628" fill-opacity="0.51"/>
<path d="M672.21 2L693.86 145.25H650.559L672.21 2Z" fill="#364628" fill-opacity="0.51"/>
<path d="M83.1703 4.25L104.821 147.5H61.5197L83.1703 4.25Z" fill="#364628" fill-opacity="0.51"/>
<path d="M126.69 3L148.341 146.25H105.039L126.69 3Z" fill="#364628" fill-opacity="0.51"/>
<path d="M1234.17 2L1255.82 145.25H1212.52L1234.17 2Z" fill="#364628" fill-opacity="0.51"/>
<path d="M47.1703 3L68.821 146.25H25.5197L47.1703 3Z" fill="#364628" fill-opacity="0.51"/>
<path d="M169.69 3L191.341 146.25H148.039L169.69 3Z" fill="#364628" fill-opacity="0.51"/>
<path d="M212.69 4L234.341 147.25H191.039L212.69 4Z" fill="#364628" fill-opacity="0.51"/>
<path d="M256.69 5.25L278.341 148.5H235.039L256.69 5.25Z" fill="#364628" fill-opacity="0.51"/>
<path d="M300.21 4L321.86 147.25H278.559L300.21 4Z" fill="#364628" fill-opacity="0.51"/>
<path d="M343.21 4L364.86 147.25H321.559L343.21 4Z" fill="#364628" fill-opacity="0.51"/>
<path d="M386.21 5L407.86 148.25H364.559L386.21 5Z" fill="#364628" fill-opacity="0.51"/>
<path d="M430.69 1.25L452.341 144.5H409.039L430.69 1.25Z" fill="#364628" fill-opacity="0.51"/>
<path d="M474.21 0L495.86 143.25H452.559L474.21 0Z" fill="#364628" fill-opacity="0.51"/>
<path d="M517.21 0L538.86 143.25H495.559L517.21 0Z" fill="#364628" fill-opacity="0.51"/>
<path d="M560.21 1L581.86 144.25H538.559L560.21 1Z" fill="#364628" fill-opacity="0.51"/>
<path d="M604.21 2.25L625.86 145.5H582.559L604.21 2.25Z" fill="#364628" fill-opacity="0.51"/>
<path d="M647.729 1L669.38 144.25H626.079L647.729 1Z" fill="#364628" fill-opacity="0.51"/>
<path d="M690.729 1L712.38 144.25H669.079L690.729 1Z" fill="#364628" fill-opacity="0.51"/>
<path d="M733.729 2L755.38 145.25H712.079L733.729 2Z" fill="#364628" fill-opacity="0.51"/>
<path d="M540.17 9.25L561.821 152.5H518.52L540.17 9.25Z" fill="#364628" fill-opacity="0.51"/>
<path d="M583.69 8L605.341 151.25H562.039L583.69 8Z" fill="#364628" fill-opacity="0.51"/>
<path d="M626.69 8L648.341 151.25H605.039L626.69 8Z" fill="#364628" fill-opacity="0.51"/>
<path d="M669.69 9L691.341 152.25H648.039L669.69 9Z" fill="#364628" fill-opacity="0.51"/>
<path d="M713.69 10.25L735.341 153.5H692.039L713.69 10.25Z" fill="#364628" fill-opacity="0.51"/>
<path d="M757.21 9L778.86 152.25H735.559L757.21 9Z" fill="#364628" fill-opacity="0.51"/>
<path d="M800.21 9L821.86 152.25H778.559L800.21 9Z" fill="#364628" fill-opacity="0.51"/>
<path d="M843.21 10L864.86 153.25H821.559L843.21 10Z" fill="#364628" fill-opacity="0.51"/>
<path d="M887.69 6.25L909.341 149.5H866.039L887.69 6.25Z" fill="#364628" fill-opacity="0.51"/>
<path d="M931.21 5L952.86 148.25H909.559L931.21 5Z" fill="#364628" fill-opacity="0.51"/>
<path d="M974.21 5L995.86 148.25H952.559L974.21 5Z" fill="#364628" fill-opacity="0.51"/>
<path d="M1017.21 6L1038.86 149.25H995.559L1017.21 6Z" fill="#364628" fill-opacity="0.51"/>
<path d="M1061.21 7.25L1082.86 150.5H1039.56L1061.21 7.25Z" fill="#364628" fill-opacity="0.51"/>
<path d="M1104.73 6L1126.38 149.25H1083.08L1104.73 6Z" fill="#364628" fill-opacity="0.51"/>
<path d="M1147.73 6L1169.38 149.25H1126.08L1147.73 6Z" fill="#364628" fill-opacity="0.51"/>
<path d="M1190.73 7L1212.38 150.25H1169.08L1190.73 7Z" fill="#364628" fill-opacity="0.51"/>
<path d="M648.17 4.25L669.821 147.5H626.52L648.17 4.25Z" fill="#364628" fill-opacity="0.51"/>
<path d="M691.69 3L713.341 146.25H670.039L691.69 3Z" fill="#364628" fill-opacity="0.51"/>
<path d="M734.69 3L756.341 146.25H713.039L734.69 3Z" fill="#364628" fill-opacity="0.51"/>
<path d="M777.69 4L799.341 147.25H756.039L777.69 4Z" fill="#364628" fill-opacity="0.51"/>
<path d="M821.69 5.25L843.341 148.5H800.039L821.69 5.25Z" fill="#364628" fill-opacity="0.51"/>
<path d="M865.21 4L886.86 147.25H843.559L865.21 4Z" fill="#364628" fill-opacity="0.51"/>
<path d="M908.21 4L929.86 147.25H886.559L908.21 4Z" fill="#364628" fill-opacity="0.51"/>
<path d="M951.21 5L972.86 148.25H929.559L951.21 5Z" fill="#364628" fill-opacity="0.51"/>
<path d="M995.69 1.25L1017.34 144.5H974.039L995.69 1.25Z" fill="#364628" fill-opacity="0.51"/>
<path d="M1039.21 0L1060.86 143.25H1017.56L1039.21 0Z" fill="#364628" fill-opacity="0.51"/>
<path d="M1082.21 0L1103.86 143.25H1060.56L1082.21 0Z" fill="#364628" fill-opacity="0.51"/>
<path d="M1125.21 1L1146.86 144.25H1103.56L1125.21 1Z" fill="#364628" fill-opacity="0.51"/>
<path d="M1169.21 2.25L1190.86 145.5H1147.56L1169.21 2.25Z" fill="#364628" fill-opacity="0.51"/>
<path d="M1212.73 1L1234.38 144.25H1191.08L1212.73 1Z" fill="#364628" fill-opacity="0.51"/>
<path d="M1255.73 1L1277.38 144.25H1234.08L1255.73 1Z" fill="#364628" fill-opacity="0.51"/>
<path d="M1298.73 2L1320.38 145.25H1277.08L1298.73 2Z" fill="#364628" fill-opacity="0.51"/>
</svg>
