<svg width="800" height="141" viewBox="0 0 800 141" fill="none" xmlns="http://www.w3.org/2000/svg">
<path d="M14.446 4.25L28.892 147.5H0L14.446 4.25Z" fill="#364628" fill-opacity="0.51"/>
<path d="M43.4837 3L57.9297 146.25H29.0377L43.4837 3Z" fill="#364628" fill-opacity="0.51"/>
<path d="M72.1747 3L86.6207 146.25H57.7287L72.1747 3Z" fill="#364628" fill-opacity="0.51"/>
<path d="M100.866 4L115.312 147.25H86.4197L100.866 4Z" fill="#364628" fill-opacity="0.51"/>
<path d="M55.4939 4.25L69.9399 147.5H41.0479L55.4939 4.25Z" fill="#364628" fill-opacity="0.51"/>
<path d="M84.5316 3L98.9776 146.25H70.0856L84.5316 3Z" fill="#364628" fill-opacity="0.51"/>
<path d="M31.4736 3L45.9196 146.25H17.0276L31.4736 3Z" fill="#364628" fill-opacity="0.51"/>
<path d="M74.6194 10.8166L136.001 141.053L108.762 150.686L74.6194 10.8166Z" fill="#364628" fill-opacity="0.51"/>
<path d="M489.568 2L504.014 145.25H475.122L489.568 2Z" fill="#364628" fill-opacity="0.51"/>
<path d="M512.273 60.2836L483.593 201.375L456 192.807L512.273 60.2836Z" fill="#364628" fill-opacity="0.51"/>
<path d="M505.235 9L519.681 152.25H490.789L505.235 9Z" fill="#364628" fill-opacity="0.51"/>
<path d="M533.926 9L548.372 152.25H519.48L533.926 9Z" fill="#364628" fill-opacity="0.51"/>
<path d="M562.617 10L577.063 153.25H548.171L562.617 10Z" fill="#364628" fill-opacity="0.51"/>
<path d="M592.295 6.25L606.741 149.5H577.849L592.295 6.25Z" fill="#364628" fill-opacity="0.51"/>
<path d="M621.333 5L635.779 148.25H606.887L621.333 5Z" fill="#364628" fill-opacity="0.51"/>
<path d="M650.024 5L664.47 148.25H635.578L650.024 5Z" fill="#364628" fill-opacity="0.51"/>
<path d="M678.715 6L693.161 149.25H664.269L678.715 6Z" fill="#364628" fill-opacity="0.51"/>
<path d="M708.073 7.25L722.519 150.5H693.627L708.073 7.25Z" fill="#364628" fill-opacity="0.51"/>
<path d="M737.111 6L751.557 149.25H722.665L737.111 6Z" fill="#364628" fill-opacity="0.51"/>
<path d="M765.802 6L780.248 149.25H751.356L765.802 6Z" fill="#364628" fill-opacity="0.51"/>
<path d="M794.493 7L808.939 150.25H780.047L794.493 7Z" fill="#364628" fill-opacity="0.51"/>
<path d="M553.751 44.9004L467.522 160.199L446.238 140.662L553.751 44.9004Z" fill="#364628" fill-opacity="0.51"/>
<path d="M518.9 4L533.346 147.25H504.454L518.9 4Z" fill="#364628" fill-opacity="0.51"/>
<path d="M548.258 5.25L562.704 148.5H533.812L548.258 5.25Z" fill="#364628" fill-opacity="0.51"/>
<path d="M577.296 4L591.742 147.25H562.85L577.296 4Z" fill="#364628" fill-opacity="0.51"/>
<path d="M605.987 4L620.433 147.25H591.541L605.987 4Z" fill="#364628" fill-opacity="0.51"/>
<path d="M634.678 5L649.124 148.25H620.232L634.678 5Z" fill="#364628" fill-opacity="0.51"/>
<path d="M664.356 1.25L678.802 144.5H649.91L664.356 1.25Z" fill="#364628" fill-opacity="0.51"/>
<path d="M693.394 0L707.84 143.25H678.948L693.394 0Z" fill="#364628" fill-opacity="0.51"/>
<path d="M722.085 0L736.531 143.25H707.639L722.085 0Z" fill="#364628" fill-opacity="0.51"/>
<path d="M750.776 1L765.222 144.25H736.33L750.776 1Z" fill="#364628" fill-opacity="0.51"/>
<path d="M780.134 2.25L794.58 145.5H765.688L780.134 2.25Z" fill="#364628" fill-opacity="0.51"/>
<path d="M809.172 1L823.618 144.25H794.726L809.172 1Z" fill="#364628" fill-opacity="0.51"/>
</svg>
