<svg width="463" height="832" viewBox="0 0 463 832" fill="none" xmlns="http://www.w3.org/2000/svg">
<rect x="64" y="62" width="399" height="35" fill="#484436"/>
<rect x="64" y="67.9178" width="399" height="35" transform="rotate(-29.738 64 67.9178)" fill="#484436"/>
<rect x="336.903" y="40.8441" width="143.469" height="28.7164" transform="rotate(-171.817 336.903 40.8441)" fill="#484436"/>
<rect x="74.1123" y="104.659" width="311.969" height="35" transform="rotate(-122.607 74.1123 104.659)" fill="#484436"/>
<rect x="-93.1365" y="-113" width="399" height="35" transform="rotate(61.8621 -93.1365 -113)" fill="#484436"/>
<rect x="64" y="62" width="35" height="770" fill="#484436"/>
<path d="M99 97H433C449.569 97 463 110.431 463 127V279C463 295.569 449.569 309 433 309H129C112.431 309 99 295.569 99 279V97Z" fill="#4A4A4A"/>
<path d="M122.33 140.836C121.836 140.836 121.316 140.745 120.77 140.563C120.25 140.381 119.73 140.082 119.21 139.666L121.238 136.975C121.628 137.469 121.992 137.846 122.33 138.106C122.668 138.392 123.084 138.535 123.578 138.535C124.488 138.535 125.307 137.69 126.035 136C126.763 134.336 127.101 131.684 127.049 128.044C127.023 125.6 126.802 123.715 126.386 122.389C125.996 121.063 125.398 120.14 124.592 119.62C123.812 119.074 122.811 118.814 121.589 118.84C120.159 118.866 118.989 119.269 118.079 120.049C117.169 120.829 116.298 121.947 115.466 123.403C115.83 124.183 116.116 124.95 116.324 125.704C116.558 126.458 116.701 127.173 116.753 127.849C116.779 128.083 116.779 128.408 116.753 128.824C116.727 129.24 116.688 129.539 116.636 129.721L111.059 136.468C110.955 136.312 110.708 136.052 110.318 135.688C109.928 135.298 109.499 134.947 109.031 134.635C108.563 134.297 108.134 134.128 107.744 134.128C107.406 134.128 107.016 134.258 106.574 134.518C106.132 134.752 105.729 135.025 105.365 135.337C105.001 135.649 104.754 135.896 104.624 136.078L104.039 135.415C104.195 135.207 104.494 134.869 104.936 134.401C105.378 133.907 105.872 133.4 106.418 132.88C106.99 132.36 107.549 131.918 108.095 131.554C108.641 131.19 109.109 131.008 109.499 131.008C110.071 131.008 110.617 131.216 111.137 131.632C111.657 132.022 112.19 132.49 112.736 133.036L113.009 132.724C113.191 132.516 113.399 132.178 113.633 131.71C113.867 131.216 113.984 130.592 113.984 129.838C113.984 129.162 113.737 128.343 113.243 127.381C112.749 126.393 112.177 125.34 111.527 124.222C110.877 123.104 110.305 121.96 109.811 120.79C109.317 119.62 109.07 118.489 109.07 117.397C109.07 116.591 109.304 115.772 109.772 114.94C110.266 114.108 110.877 113.315 111.605 112.561C112.333 111.781 113.087 111.066 113.867 110.416C114.647 109.766 115.336 109.233 115.934 108.817C116.558 108.375 116.987 108.102 117.221 107.998C117.715 108.31 118.313 108.648 119.015 109.012C119.717 109.35 120.406 109.649 121.082 109.909C121.758 110.143 122.291 110.26 122.681 110.26C123.175 110.26 123.63 110.143 124.046 109.909C124.488 109.649 124.878 109.363 125.216 109.051C125.554 108.739 125.84 108.479 126.074 108.271L126.698 108.856C125.112 110.52 123.773 111.703 122.681 112.405C121.615 113.081 121.017 113.419 120.887 113.419C120.393 113.419 119.743 113.289 118.937 113.029C118.157 112.743 117.39 112.431 116.636 112.093C115.908 111.755 115.349 111.469 114.959 111.235C114.673 111.521 114.335 111.924 113.945 112.444C113.581 112.938 113.269 113.523 113.009 114.199C112.749 114.849 112.619 115.551 112.619 116.305C112.619 116.877 112.801 117.618 113.165 118.528C113.529 119.438 114.01 120.491 114.608 121.687C114.868 121.453 115.258 121.115 115.778 120.673C116.324 120.231 116.922 119.75 117.572 119.23C118.222 118.684 118.859 118.164 119.483 117.67C120.107 117.176 120.64 116.773 121.082 116.461C121.524 116.149 121.81 115.993 121.94 115.993C122.122 115.993 122.486 116.019 123.032 116.071C123.578 116.097 124.228 116.188 124.982 116.344C125.736 116.5 126.516 116.734 127.322 117.046C128.128 117.332 128.882 117.735 129.584 118.255C129.844 118.983 130.052 119.893 130.208 120.985C130.39 122.077 130.507 123.156 130.559 124.222C130.637 125.288 130.663 126.133 130.637 126.757C130.611 127.927 130.52 129.058 130.364 130.15C130.234 131.242 130.052 132.269 129.818 133.231C129.61 134.193 129.376 135.064 129.116 135.844C127.608 137.092 126.399 138.054 125.489 138.73C124.605 139.406 123.942 139.887 123.5 140.173C123.058 140.485 122.759 140.667 122.603 140.719C122.447 140.797 122.356 140.836 122.33 140.836ZM137.789 136.897L137.282 136.546L137.477 136.156C137.477 136 137.243 135.688 136.775 135.22C135.878 134.362 134.006 131.359 134.006 127.576C134.006 125.041 134.747 123.247 136.112 121.375C136.775 120.478 138.335 118.918 140.831 116.773H141.611L141.65 116.968C142.937 117.943 144.848 118.879 147.305 119.776V120.517C146.33 120.751 146.096 121.18 146.096 122.701V130.774C146.096 132.568 146.564 133.465 147.539 133.465C147.773 133.465 148.124 133.192 148.592 132.607L149.177 133.075L146.018 136.897L145.433 136.585L145.706 136.156C143.795 134.635 143.483 134.05 143.483 132.295V131.944C141.299 133.66 139.427 135.337 137.789 136.897ZM140.051 133.387C140.285 133.387 140.558 133.231 140.948 132.919L143.483 130.93V121.219C142.079 120.556 140.831 119.776 139.739 118.879C137.594 120.517 136.502 122.74 136.502 125.665C136.502 129.487 138.764 133.387 140.051 133.387ZM156.864 136.897L156.24 136.624C156.318 136.507 156.357 136.429 156.357 136.351C156.357 136.195 155.967 135.922 155.616 135.688C154.602 135.025 153.549 134.401 152.457 133.972V133.27C153.393 133.153 153.861 132.529 153.861 131.359V122.311C153.861 121.297 153.783 120.946 152.925 120.322L152.028 121.102L151.521 120.595L154.797 116.773L155.421 117.163C155.343 117.358 155.265 117.67 155.265 117.748C155.265 117.943 155.343 118.099 155.46 118.216C156.123 118.879 156.474 119.581 156.474 120.244V121.375C157.215 120.088 157.917 119.113 158.502 118.45C159.087 117.787 159.399 117.202 159.438 116.773H160.101C160.296 117.748 160.881 118.684 161.856 119.62V120.634C161.271 121.297 160.803 122.077 160.374 123.013H159.633C159.36 122.155 158.814 121.258 158.073 120.361L157.254 121.609C156.552 122.662 156.474 123.091 156.474 124.261V132.061C156.474 132.412 156.552 132.646 156.786 132.802C157.683 133.465 158.19 133.777 158.385 133.777C158.58 133.777 158.736 133.699 158.853 133.582L160.842 131.866L161.427 132.451L156.864 136.897ZM169.546 136.897L168.922 136.624C169 136.507 169.039 136.429 169.039 136.351C169.039 136.195 168.649 135.922 168.298 135.688C167.284 135.025 166.231 134.401 165.139 133.972V133.27C166.075 133.153 166.543 132.529 166.543 131.359V122.311C166.543 121.297 166.465 120.946 165.607 120.322L164.71 121.102L164.203 120.595L167.479 116.773L168.103 117.163C168.025 117.358 167.947 117.67 167.947 117.748C167.947 117.943 168.025 118.099 168.142 118.216C168.805 118.879 169.156 119.581 169.156 120.244V121.375C169.897 120.088 170.599 119.113 171.184 118.45C171.769 117.787 172.081 117.202 172.12 116.773H172.783C172.978 117.748 173.563 118.684 174.538 119.62V120.634C173.953 121.297 173.485 122.077 173.056 123.013H172.315C172.042 122.155 171.496 121.258 170.755 120.361L169.936 121.609C169.234 122.662 169.156 123.091 169.156 124.261V132.061C169.156 132.412 169.234 132.646 169.468 132.802C170.365 133.465 170.872 133.777 171.067 133.777C171.262 133.777 171.418 133.699 171.535 133.582L173.524 131.866L174.109 132.451L169.546 136.897ZM179.694 113.809C179.733 113.458 179.928 111.742 180.318 110.494C180.708 109.246 181.293 108.193 182.307 108.193C183.165 108.193 183.594 108.661 183.594 109.402C183.594 110.533 182.424 111.781 180.396 113.809H179.694ZM181.176 136.897L180.552 136.585L180.708 136.234C179.46 135.22 179.148 134.791 179.148 133.738C179.148 133.348 179.148 132.958 179.187 132.529C179.226 132.061 179.226 131.593 179.226 131.203V122.272C179.226 121.141 179.07 120.79 178.641 120.79C178.368 120.79 177.939 121.024 177.393 121.531L176.886 121.024C178.173 119.932 179.421 118.372 180.63 116.773L181.176 117.124C180.942 117.475 180.864 117.748 180.864 117.943C180.864 118.294 182.034 119.308 182.97 119.581V120.439C181.995 120.634 181.839 121.141 181.839 122.272V131.827C181.839 132.763 182.346 133.309 182.736 133.309C182.97 133.309 183.399 132.997 183.984 132.373L184.569 132.958C183.36 134.128 182.229 135.415 181.176 136.897ZM191.855 136.897C191.777 136.546 191.309 136.078 190.451 135.454C189.632 134.869 188.423 134.128 186.902 133.231V132.49C188.501 131.749 189.983 129.955 189.983 128.551C189.983 127.849 189.515 126.874 188.54 125.548C187.565 124.222 187.058 123.325 187.058 122.779C187.058 122.311 187.409 121.687 188.072 120.946C190.685 118.138 192.284 116.773 192.83 116.773C192.986 116.851 193.142 116.929 193.298 117.046C194.546 117.982 195.716 118.567 196.808 118.567C198.29 118.567 199.109 117.826 199.109 116.266C199.109 114.511 198.056 113.263 196.691 113.263C195.638 113.263 195.014 113.965 194.78 115.291C194.156 114.823 193.61 114.472 193.142 114.316C193.727 112.951 194.702 112.249 196.184 112.249C198.212 112.249 199.928 114.043 199.928 116.266C199.928 117.397 199.499 118.489 198.641 119.581L195.794 123.247C198.446 124.612 199.811 126.64 199.811 128.824C199.811 131.632 197.978 133.894 194.273 135.649C193.61 135.961 193.025 136.39 192.557 136.897H191.855ZM192.323 126.406L196.301 121.336C195.014 121.336 193.532 120.712 192.05 119.581C191.777 119.386 191.543 119.308 191.309 119.308C190.685 119.308 189.359 120.79 189.359 121.375C189.359 121.726 189.749 122.389 190.49 123.364C191.231 124.339 191.855 125.353 192.323 126.406ZM194.351 134.362C195.794 134.362 197.783 132.568 197.783 130.579C197.783 128.317 195.17 125.899 194.039 125.899C193.883 125.899 193.61 126.094 193.337 126.445L189.554 131.281L192.596 133.504C193.376 134.05 193.922 134.362 194.351 134.362ZM207.94 136.897C207.862 136.546 207.472 136.156 206.809 135.805C205.912 135.298 204.469 134.791 202.48 134.284V133.504C202.831 133.387 203.104 133.075 203.221 132.568C203.338 132.022 203.377 131.281 203.377 130.267V123.559C203.377 122.233 203.299 121.141 203.182 120.244L211.645 116.773L212.035 117.475L211.45 117.787C211.84 118.645 212.581 119.854 213.673 121.414C214.765 123.013 215.311 124.612 215.311 126.094C215.311 128.668 213.985 131.047 211.333 134.011L208.72 136.897H207.94ZM209.929 134.05C210.826 134.05 212.932 130.852 212.932 128.317C212.932 126.64 212.308 124.846 211.06 123.013C209.812 121.219 208.915 119.854 208.447 118.957L205.99 119.971V132.217C207.121 132.724 208.018 133.192 208.642 133.543C209.266 133.894 209.695 134.05 209.929 134.05ZM221.065 136.975C220.714 135.844 219.973 135.142 218.842 134.908V134.128C219.739 133.972 220.168 133.231 220.168 131.944V122.233C220.168 121.18 220.09 120.868 219.349 120.244L218.452 121.102L217.828 120.595L221.143 116.773L221.767 117.202C221.572 117.475 221.494 117.67 221.494 117.787C221.494 117.904 221.572 117.982 221.728 118.099C222.469 118.645 222.781 119.581 222.781 121.102V121.882L227.773 116.773H228.592C229.489 118.216 231.01 119.152 232.063 119.23V119.971C231.478 120.244 231.166 120.829 231.166 121.726V132.178C231.166 133.036 231.4 133.465 231.868 133.465C232.258 133.465 232.609 133.192 232.96 132.607L233.584 133.036L230.542 136.975L229.957 136.585L230.191 136.156C228.865 135.22 228.436 134.791 228.436 133.738C228.436 133.309 228.475 132.841 228.514 132.412C228.553 131.866 228.553 131.359 228.553 130.813V121.804C228.553 121.18 227.929 120.517 227.344 120.127C227.032 119.893 226.72 119.776 226.564 119.776C226.291 119.776 225.94 120.01 225.472 120.478L222.781 123.052V131.944C222.781 133.231 223.21 133.972 224.107 134.128V134.908C222.976 135.142 222.235 135.844 221.884 136.975H221.065ZM262.516 136.897C261.58 136.897 259.24 135.61 257.017 134.245C253.195 131.866 250.66 130.306 249.802 130.306C249.295 130.306 248.71 130.696 247.969 131.515L247.345 131.086C248.398 129.565 249.178 128.551 249.724 127.927C250.231 127.342 250.699 127.069 251.089 127.069C251.44 127.069 251.986 127.342 252.766 127.771C253.546 128.2 254.794 128.434 256.549 128.434C259.201 128.434 260.605 127.342 260.605 126.25C260.605 125.626 260.098 124.924 259.084 124.222C258.304 123.676 257.485 123.052 256.783 122.467C255.613 121.492 254.755 120.439 254.755 119.347C254.755 117.475 256.627 115.369 260.41 113.029L258.226 111.82C256.003 110.572 254.404 109.948 253.429 109.948C250.894 109.948 249.061 111.898 249.061 114.394C249.061 115.876 249.685 117.202 250.894 118.333L250.27 118.957C248.866 117.67 248.164 116.11 248.164 114.316C248.164 110.416 253.351 107.53 256.003 107.53C256.978 107.53 258.85 108.349 260.956 109.597C262.75 110.65 264.388 111.586 265.558 112.249C266.884 112.99 267.703 113.419 268.171 113.419C268.561 113.419 269.146 113.146 269.809 112.639L270.433 113.146C269.302 114.043 268.483 114.823 267.976 115.369C267.469 115.915 267.04 116.188 266.767 116.188C266.377 116.188 264.544 115.291 261.268 113.458C258.889 114.979 257.68 116.5 257.68 117.904C257.68 118.723 258.304 119.542 259.24 120.361C260.059 121.063 261.034 121.804 261.931 122.428C262.906 123.091 263.335 123.949 263.335 124.924C263.335 127.381 260.956 129.253 256.51 129.253C256.003 129.253 255.379 129.175 254.989 129.097L257.134 130.423C259.786 132.1 262.399 133.699 264.193 133.699C265.558 133.699 267.079 132.919 268.795 131.437L269.302 132.022C267.664 133.738 266.221 134.947 265.012 135.727C263.803 136.507 262.984 136.897 262.516 136.897ZM278.129 136.897L277.505 136.624C277.583 136.507 277.622 136.429 277.622 136.351C277.622 136.195 277.232 135.922 276.881 135.688C275.867 135.025 274.814 134.401 273.722 133.972V133.27C274.658 133.153 275.126 132.529 275.126 131.359V122.311C275.126 121.297 275.048 120.946 274.19 120.322L273.293 121.102L272.786 120.595L276.062 116.773L276.686 117.163C276.608 117.358 276.53 117.67 276.53 117.748C276.53 117.943 276.608 118.099 276.725 118.216C277.388 118.879 277.739 119.581 277.739 120.244V121.375C278.48 120.088 279.182 119.113 279.767 118.45C280.352 117.787 280.664 117.202 280.703 116.773H281.366C281.561 117.748 282.146 118.684 283.121 119.62V120.634C282.536 121.297 282.068 122.077 281.639 123.013H280.898C280.625 122.155 280.079 121.258 279.338 120.361L278.519 121.609C277.817 122.662 277.739 123.091 277.739 124.261V132.061C277.739 132.412 277.817 132.646 278.051 132.802C278.948 133.465 279.455 133.777 279.65 133.777C279.845 133.777 280.001 133.699 280.118 133.582L282.107 131.866L282.692 132.451L278.129 136.897ZM289.447 136.897L288.94 136.546L289.135 136.156C289.135 136 288.901 135.688 288.433 135.22C287.536 134.362 285.664 131.359 285.664 127.576C285.664 125.041 286.405 123.247 287.77 121.375C288.433 120.478 289.993 118.918 292.489 116.773H293.269L293.308 116.968C294.595 117.943 296.506 118.879 298.963 119.776V120.517C297.988 120.751 297.754 121.18 297.754 122.701V130.774C297.754 132.568 298.222 133.465 299.197 133.465C299.431 133.465 299.782 133.192 300.25 132.607L300.835 133.075L297.676 136.897L297.091 136.585L297.364 136.156C295.453 134.635 295.141 134.05 295.141 132.295V131.944C292.957 133.66 291.085 135.337 289.447 136.897ZM291.709 133.387C291.943 133.387 292.216 133.231 292.606 132.919L295.141 130.93V121.219C293.737 120.556 292.489 119.776 291.397 118.879C289.252 120.517 288.16 122.74 288.16 125.665C288.16 129.487 290.422 133.387 291.709 133.387ZM306.416 136.975C306.065 135.844 305.324 135.142 304.193 134.908V134.128C305.09 133.972 305.519 133.231 305.519 131.944V122.233C305.519 121.18 305.441 120.868 304.7 120.244L303.803 121.102L303.179 120.595L306.494 116.773L307.118 117.202C306.923 117.475 306.845 117.67 306.845 117.787C306.845 117.904 306.923 117.982 307.079 118.099C307.82 118.645 308.132 119.581 308.132 121.102V121.882L313.124 116.773H313.943C314.84 118.216 316.361 119.152 317.414 119.23V119.971C316.829 120.244 316.517 120.829 316.517 121.726V132.178C316.517 133.036 316.751 133.465 317.219 133.465C317.609 133.465 317.96 133.192 318.311 132.607L318.935 133.036L315.893 136.975L315.308 136.585L315.542 136.156C314.216 135.22 313.787 134.791 313.787 133.738C313.787 133.309 313.826 132.841 313.865 132.412C313.904 131.866 313.904 131.359 313.904 130.813V121.804C313.904 121.18 313.28 120.517 312.695 120.127C312.383 119.893 312.071 119.776 311.915 119.776C311.642 119.776 311.291 120.01 310.823 120.478L308.132 123.052V131.944C308.132 133.231 308.561 133.972 309.458 134.128V134.908C308.327 135.142 307.586 135.844 307.235 136.975H306.416Z" fill="#A12E2E"/>
</svg>
