<svg width="346" height="500" viewBox="0 0 346 500" fill="none" xmlns="http://www.w3.org/2000/svg">
<rect x="26.5281" y="62" width="319.472" height="35" fill="#484436"/>
<rect width="340.766" height="33.4189" transform="matrix(0.814044 -0.580803 0.415957 0.909384 26.5281 67.9178)" fill="#484436"/>
<rect width="115.523" height="28.6118" transform="matrix(-0.984254 -0.176762 0.114378 -0.993437 245.036 40.8441)" fill="#484436"/>
<rect width="295.265" height="30.216" transform="matrix(-0.455877 -0.890043 0.781271 -0.624192 34.6248 104.659)" fill="#484436"/>
<rect width="382.744" height="29.7173" transform="matrix(0.393635 0.919267 -0.831564 0.555428 -99.2881 -113)" fill="#484436"/>
<rect x="26.5281" y="62" width="28.0238" height="770" fill="#484436"/>
<path d="M54.552 97H346V279C346 295.569 332.569 309 316 309H84.5519C67.9834 309 54.552 295.569 54.552 279V97Z" fill="#4A4A4A"/>
<path d="M76.8854 140.836C76.3914 140.836 75.8714 140.745 75.3254 140.563C74.8054 140.381 74.2854 140.082 73.7654 139.666L75.7934 136.975C76.1834 137.469 76.5474 137.846 76.8854 138.106C77.2234 138.392 77.6394 138.535 78.1334 138.535C79.0434 138.535 79.8624 137.69 80.5904 136C81.3184 134.336 81.6564 131.684 81.6044 128.044C81.5784 125.6 81.3574 123.715 80.9414 122.389C80.5514 121.063 79.9534 120.14 79.1474 119.62C78.3674 119.074 77.3664 118.814 76.1444 118.84C74.7144 118.866 73.5444 119.269 72.6344 120.049C71.7244 120.829 70.8534 121.947 70.0214 123.403C70.3854 124.183 70.6714 124.95 70.8794 125.704C71.1134 126.458 71.2564 127.173 71.3084 127.849C71.3344 128.083 71.3344 128.408 71.3084 128.824C71.2824 129.24 71.2434 129.539 71.1914 129.721L65.6144 136.468C65.5104 136.312 65.2634 136.052 64.8734 135.688C64.4834 135.298 64.0544 134.947 63.5864 134.635C63.1184 134.297 62.6894 134.128 62.2994 134.128C61.9614 134.128 61.5714 134.258 61.1294 134.518C60.6874 134.752 60.2844 135.025 59.9204 135.337C59.5564 135.649 59.3094 135.896 59.1794 136.078L58.5944 135.415C58.7504 135.207 59.0494 134.869 59.4914 134.401C59.9334 133.907 60.4274 133.4 60.9734 132.88C61.5454 132.36 62.1044 131.918 62.6504 131.554C63.1964 131.19 63.6644 131.008 64.0544 131.008C64.6264 131.008 65.1724 131.216 65.6924 131.632C66.2124 132.022 66.7454 132.49 67.2914 133.036L67.5644 132.724C67.7464 132.516 67.9544 132.178 68.1884 131.71C68.4224 131.216 68.5394 130.592 68.5394 129.838C68.5394 129.162 68.2924 128.343 67.7984 127.381C67.3044 126.393 66.7324 125.34 66.0824 124.222C65.4324 123.104 64.8604 121.96 64.3664 120.79C63.8724 119.62 63.6254 118.489 63.6254 117.397C63.6254 116.591 63.8594 115.772 64.3274 114.94C64.8214 114.108 65.4324 113.315 66.1604 112.561C66.8884 111.781 67.6424 111.066 68.4224 110.416C69.2024 109.766 69.8914 109.233 70.4894 108.817C71.1134 108.375 71.5424 108.102 71.7764 107.998C72.2704 108.31 72.8684 108.648 73.5704 109.012C74.2724 109.35 74.9614 109.649 75.6374 109.909C76.3134 110.143 76.8464 110.26 77.2364 110.26C77.7304 110.26 78.1854 110.143 78.6014 109.909C79.0434 109.649 79.4334 109.363 79.7714 109.051C80.1094 108.739 80.3954 108.479 80.6294 108.271L81.2534 108.856C79.6674 110.52 78.3284 111.703 77.2364 112.405C76.1704 113.081 75.5724 113.419 75.4424 113.419C74.9484 113.419 74.2984 113.289 73.4924 113.029C72.7124 112.743 71.9454 112.431 71.1914 112.093C70.4634 111.755 69.9044 111.469 69.5144 111.235C69.2284 111.521 68.8904 111.924 68.5004 112.444C68.1364 112.938 67.8244 113.523 67.5644 114.199C67.3044 114.849 67.1744 115.551 67.1744 116.305C67.1744 116.877 67.3564 117.618 67.7204 118.528C68.0844 119.438 68.5654 120.491 69.1634 121.687C69.4234 121.453 69.8134 121.115 70.3334 120.673C70.8794 120.231 71.4774 119.75 72.1274 119.23C72.7774 118.684 73.4144 118.164 74.0384 117.67C74.6624 117.176 75.1954 116.773 75.6374 116.461C76.0794 116.149 76.3654 115.993 76.4954 115.993C76.6774 115.993 77.0414 116.019 77.5874 116.071C78.1334 116.097 78.7834 116.188 79.5374 116.344C80.2914 116.5 81.0714 116.734 81.8774 117.046C82.6834 117.332 83.4374 117.735 84.1394 118.255C84.3994 118.983 84.6074 119.893 84.7634 120.985C84.9454 122.077 85.0624 123.156 85.1144 124.222C85.1924 125.288 85.2184 126.133 85.1924 126.757C85.1664 127.927 85.0754 129.058 84.9194 130.15C84.7894 131.242 84.6074 132.269 84.3734 133.231C84.1654 134.193 83.9314 135.064 83.6714 135.844C82.1634 137.092 80.9544 138.054 80.0444 138.73C79.1604 139.406 78.4974 139.887 78.0554 140.173C77.6134 140.485 77.3144 140.667 77.1584 140.719C77.0024 140.797 76.9114 140.836 76.8854 140.836ZM92.344 136.897L91.837 136.546L92.032 136.156C92.032 136 91.798 135.688 91.33 135.22C90.433 134.362 88.561 131.359 88.561 127.576C88.561 125.041 89.302 123.247 90.667 121.375C91.33 120.478 92.89 118.918 95.386 116.773H96.166L96.205 116.968C97.492 117.943 99.403 118.879 101.86 119.776V120.517C100.885 120.751 100.651 121.18 100.651 122.701V130.774C100.651 132.568 101.119 133.465 102.094 133.465C102.328 133.465 102.679 133.192 103.147 132.607L103.732 133.075L100.573 136.897L99.988 136.585L100.261 136.156C98.35 134.635 98.038 134.05 98.038 132.295V131.944C95.854 133.66 93.982 135.337 92.344 136.897ZM94.606 133.387C94.84 133.387 95.113 133.231 95.503 132.919L98.038 130.93V121.219C96.634 120.556 95.386 119.776 94.294 118.879C92.149 120.517 91.057 122.74 91.057 125.665C91.057 129.487 93.319 133.387 94.606 133.387ZM111.419 136.897L110.795 136.624C110.873 136.507 110.912 136.429 110.912 136.351C110.912 136.195 110.522 135.922 110.171 135.688C109.157 135.025 108.104 134.401 107.012 133.972V133.27C107.948 133.153 108.416 132.529 108.416 131.359V122.311C108.416 121.297 108.338 120.946 107.48 120.322L106.583 121.102L106.076 120.595L109.352 116.773L109.976 117.163C109.898 117.358 109.82 117.67 109.82 117.748C109.82 117.943 109.898 118.099 110.015 118.216C110.678 118.879 111.029 119.581 111.029 120.244V121.375C111.77 120.088 112.472 119.113 113.057 118.45C113.642 117.787 113.954 117.202 113.993 116.773H114.656C114.851 117.748 115.436 118.684 116.411 119.62V120.634C115.826 121.297 115.358 122.077 114.929 123.013H114.188C113.915 122.155 113.369 121.258 112.628 120.361L111.809 121.609C111.107 122.662 111.029 123.091 111.029 124.261V132.061C111.029 132.412 111.107 132.646 111.341 132.802C112.238 133.465 112.745 133.777 112.94 133.777C113.135 133.777 113.291 133.699 113.408 133.582L115.397 131.866L115.982 132.451L111.419 136.897ZM124.102 136.897L123.478 136.624C123.556 136.507 123.595 136.429 123.595 136.351C123.595 136.195 123.205 135.922 122.854 135.688C121.84 135.025 120.787 134.401 119.695 133.972V133.27C120.631 133.153 121.099 132.529 121.099 131.359V122.311C121.099 121.297 121.021 120.946 120.163 120.322L119.266 121.102L118.759 120.595L122.035 116.773L122.659 117.163C122.581 117.358 122.503 117.67 122.503 117.748C122.503 117.943 122.581 118.099 122.698 118.216C123.361 118.879 123.712 119.581 123.712 120.244V121.375C124.453 120.088 125.155 119.113 125.74 118.45C126.325 117.787 126.637 117.202 126.676 116.773H127.339C127.534 117.748 128.119 118.684 129.094 119.62V120.634C128.509 121.297 128.041 122.077 127.612 123.013H126.871C126.598 122.155 126.052 121.258 125.311 120.361L124.492 121.609C123.79 122.662 123.712 123.091 123.712 124.261V132.061C123.712 132.412 123.79 132.646 124.024 132.802C124.921 133.465 125.428 133.777 125.623 133.777C125.818 133.777 125.974 133.699 126.091 133.582L128.08 131.866L128.665 132.451L124.102 136.897ZM134.249 113.809C134.288 113.458 134.483 111.742 134.873 110.494C135.263 109.246 135.848 108.193 136.862 108.193C137.72 108.193 138.149 108.661 138.149 109.402C138.149 110.533 136.979 111.781 134.951 113.809H134.249ZM135.731 136.897L135.107 136.585L135.263 136.234C134.015 135.22 133.703 134.791 133.703 133.738C133.703 133.348 133.703 132.958 133.742 132.529C133.781 132.061 133.781 131.593 133.781 131.203V122.272C133.781 121.141 133.625 120.79 133.196 120.79C132.923 120.79 132.494 121.024 131.948 121.531L131.441 121.024C132.728 119.932 133.976 118.372 135.185 116.773L135.731 117.124C135.497 117.475 135.419 117.748 135.419 117.943C135.419 118.294 136.589 119.308 137.525 119.581V120.439C136.55 120.634 136.394 121.141 136.394 122.272V131.827C136.394 132.763 136.901 133.309 137.291 133.309C137.525 133.309 137.954 132.997 138.539 132.373L139.124 132.958C137.915 134.128 136.784 135.415 135.731 136.897ZM146.411 136.897C146.333 136.546 145.865 136.078 145.007 135.454C144.188 134.869 142.979 134.128 141.458 133.231V132.49C143.057 131.749 144.539 129.955 144.539 128.551C144.539 127.849 144.071 126.874 143.096 125.548C142.121 124.222 141.614 123.325 141.614 122.779C141.614 122.311 141.965 121.687 142.628 120.946C145.241 118.138 146.84 116.773 147.386 116.773C147.542 116.851 147.698 116.929 147.854 117.046C149.102 117.982 150.272 118.567 151.364 118.567C152.846 118.567 153.665 117.826 153.665 116.266C153.665 114.511 152.612 113.263 151.247 113.263C150.194 113.263 149.57 113.965 149.336 115.291C148.712 114.823 148.166 114.472 147.698 114.316C148.283 112.951 149.258 112.249 150.74 112.249C152.768 112.249 154.484 114.043 154.484 116.266C154.484 117.397 154.055 118.489 153.197 119.581L150.35 123.247C153.002 124.612 154.367 126.64 154.367 128.824C154.367 131.632 152.534 133.894 148.829 135.649C148.166 135.961 147.581 136.39 147.113 136.897H146.411ZM146.879 126.406L150.857 121.336C149.57 121.336 148.088 120.712 146.606 119.581C146.333 119.386 146.099 119.308 145.865 119.308C145.241 119.308 143.915 120.79 143.915 121.375C143.915 121.726 144.305 122.389 145.046 123.364C145.787 124.339 146.411 125.353 146.879 126.406ZM148.907 134.362C150.35 134.362 152.339 132.568 152.339 130.579C152.339 128.317 149.726 125.899 148.595 125.899C148.439 125.899 148.166 126.094 147.893 126.445L144.11 131.281L147.152 133.504C147.932 134.05 148.478 134.362 148.907 134.362ZM162.495 136.897C162.417 136.546 162.027 136.156 161.364 135.805C160.467 135.298 159.024 134.791 157.035 134.284V133.504C157.386 133.387 157.659 133.075 157.776 132.568C157.893 132.022 157.932 131.281 157.932 130.267V123.559C157.932 122.233 157.854 121.141 157.737 120.244L166.2 116.773L166.59 117.475L166.005 117.787C166.395 118.645 167.136 119.854 168.228 121.414C169.32 123.013 169.866 124.612 169.866 126.094C169.866 128.668 168.54 131.047 165.888 134.011L163.275 136.897H162.495ZM164.484 134.05C165.381 134.05 167.487 130.852 167.487 128.317C167.487 126.64 166.863 124.846 165.615 123.013C164.367 121.219 163.47 119.854 163.002 118.957L160.545 119.971V132.217C161.676 132.724 162.573 133.192 163.197 133.543C163.821 133.894 164.25 134.05 164.484 134.05ZM175.621 136.975C175.27 135.844 174.529 135.142 173.398 134.908V134.128C174.295 133.972 174.724 133.231 174.724 131.944V122.233C174.724 121.18 174.646 120.868 173.905 120.244L173.008 121.102L172.384 120.595L175.699 116.773L176.323 117.202C176.128 117.475 176.05 117.67 176.05 117.787C176.05 117.904 176.128 117.982 176.284 118.099C177.025 118.645 177.337 119.581 177.337 121.102V121.882L182.329 116.773H183.148C184.045 118.216 185.566 119.152 186.619 119.23V119.971C186.034 120.244 185.722 120.829 185.722 121.726V132.178C185.722 133.036 185.956 133.465 186.424 133.465C186.814 133.465 187.165 133.192 187.516 132.607L188.14 133.036L185.098 136.975L184.513 136.585L184.747 136.156C183.421 135.22 182.992 134.791 182.992 133.738C182.992 133.309 183.031 132.841 183.07 132.412C183.109 131.866 183.109 131.359 183.109 130.813V121.804C183.109 121.18 182.485 120.517 181.9 120.127C181.588 119.893 181.276 119.776 181.12 119.776C180.847 119.776 180.496 120.01 180.028 120.478L177.337 123.052V131.944C177.337 133.231 177.766 133.972 178.663 134.128V134.908C177.532 135.142 176.791 135.844 176.44 136.975H175.621ZM217.071 136.897C216.135 136.897 213.795 135.61 211.572 134.245C207.75 131.866 205.215 130.306 204.357 130.306C203.85 130.306 203.265 130.696 202.524 131.515L201.9 131.086C202.953 129.565 203.733 128.551 204.279 127.927C204.786 127.342 205.254 127.069 205.644 127.069C205.995 127.069 206.541 127.342 207.321 127.771C208.101 128.2 209.349 128.434 211.104 128.434C213.756 128.434 215.16 127.342 215.16 126.25C215.16 125.626 214.653 124.924 213.639 124.222C212.859 123.676 212.04 123.052 211.338 122.467C210.168 121.492 209.31 120.439 209.31 119.347C209.31 117.475 211.182 115.369 214.965 113.029L212.781 111.82C210.558 110.572 208.959 109.948 207.984 109.948C205.449 109.948 203.616 111.898 203.616 114.394C203.616 115.876 204.24 117.202 205.449 118.333L204.825 118.957C203.421 117.67 202.719 116.11 202.719 114.316C202.719 110.416 207.906 107.53 210.558 107.53C211.533 107.53 213.405 108.349 215.511 109.597C217.305 110.65 218.943 111.586 220.113 112.249C221.439 112.99 222.258 113.419 222.726 113.419C223.116 113.419 223.701 113.146 224.364 112.639L224.988 113.146C223.857 114.043 223.038 114.823 222.531 115.369C222.024 115.915 221.595 116.188 221.322 116.188C220.932 116.188 219.099 115.291 215.823 113.458C213.444 114.979 212.235 116.5 212.235 117.904C212.235 118.723 212.859 119.542 213.795 120.361C214.614 121.063 215.589 121.804 216.486 122.428C217.461 123.091 217.89 123.949 217.89 124.924C217.89 127.381 215.511 129.253 211.065 129.253C210.558 129.253 209.934 129.175 209.544 129.097L211.689 130.423C214.341 132.1 216.954 133.699 218.748 133.699C220.113 133.699 221.634 132.919 223.35 131.437L223.857 132.022C222.219 133.738 220.776 134.947 219.567 135.727C218.358 136.507 217.539 136.897 217.071 136.897ZM232.685 136.897L232.061 136.624C232.139 136.507 232.178 136.429 232.178 136.351C232.178 136.195 231.788 135.922 231.437 135.688C230.423 135.025 229.37 134.401 228.278 133.972V133.27C229.214 133.153 229.682 132.529 229.682 131.359V122.311C229.682 121.297 229.604 120.946 228.746 120.322L227.849 121.102L227.342 120.595L230.618 116.773L231.242 117.163C231.164 117.358 231.086 117.67 231.086 117.748C231.086 117.943 231.164 118.099 231.281 118.216C231.944 118.879 232.295 119.581 232.295 120.244V121.375C233.036 120.088 233.738 119.113 234.323 118.45C234.908 117.787 235.22 117.202 235.259 116.773H235.922C236.117 117.748 236.702 118.684 237.677 119.62V120.634C237.092 121.297 236.624 122.077 236.195 123.013H235.454C235.181 122.155 234.635 121.258 233.894 120.361L233.075 121.609C232.373 122.662 232.295 123.091 232.295 124.261V132.061C232.295 132.412 232.373 132.646 232.607 132.802C233.504 133.465 234.011 133.777 234.206 133.777C234.401 133.777 234.557 133.699 234.674 133.582L236.663 131.866L237.248 132.451L232.685 136.897ZM244.002 136.897L243.495 136.546L243.69 136.156C243.69 136 243.456 135.688 242.988 135.22C242.091 134.362 240.219 131.359 240.219 127.576C240.219 125.041 240.96 123.247 242.325 121.375C242.988 120.478 244.548 118.918 247.044 116.773H247.824L247.863 116.968C249.15 117.943 251.061 118.879 253.518 119.776V120.517C252.543 120.751 252.309 121.18 252.309 122.701V130.774C252.309 132.568 252.777 133.465 253.752 133.465C253.986 133.465 254.337 133.192 254.805 132.607L255.39 133.075L252.231 136.897L251.646 136.585L251.919 136.156C250.008 134.635 249.696 134.05 249.696 132.295V131.944C247.512 133.66 245.64 135.337 244.002 136.897ZM246.264 133.387C246.498 133.387 246.771 133.231 247.161 132.919L249.696 130.93V121.219C248.292 120.556 247.044 119.776 245.952 118.879C243.807 120.517 242.715 122.74 242.715 125.665C242.715 129.487 244.977 133.387 246.264 133.387ZM260.971 136.975C260.62 135.844 259.879 135.142 258.748 134.908V134.128C259.645 133.972 260.074 133.231 260.074 131.944V122.233C260.074 121.18 259.996 120.868 259.255 120.244L258.358 121.102L257.734 120.595L261.049 116.773L261.673 117.202C261.478 117.475 261.4 117.67 261.4 117.787C261.4 117.904 261.478 117.982 261.634 118.099C262.375 118.645 262.687 119.581 262.687 121.102V121.882L267.679 116.773H268.498C269.395 118.216 270.916 119.152 271.969 119.23V119.971C271.384 120.244 271.072 120.829 271.072 121.726V132.178C271.072 133.036 271.306 133.465 271.774 133.465C272.164 133.465 272.515 133.192 272.866 132.607L273.49 133.036L270.448 136.975L269.863 136.585L270.097 136.156C268.771 135.22 268.342 134.791 268.342 133.738C268.342 133.309 268.381 132.841 268.42 132.412C268.459 131.866 268.459 131.359 268.459 130.813V121.804C268.459 121.18 267.835 120.517 267.25 120.127C266.938 119.893 266.626 119.776 266.47 119.776C266.197 119.776 265.846 120.01 265.378 120.478L262.687 123.052V131.944C262.687 133.231 263.116 133.972 264.013 134.128V134.908C262.882 135.142 262.141 135.844 261.79 136.975H260.971Z" fill="#A12E2E"/>
</svg>
