<svg width="29" height="81" viewBox="0 0 29 81" fill="none" xmlns="http://www.w3.org/2000/svg">
<rect x="9.96899" width="8" height="40" fill="#2A1D11"/>
<rect x="8.96899" y="35" width="10" height="22" fill="#3B3B3B"/>
<path d="M14.5 40.5C14.6937 40.5 15.0689 40.6 15.624 40.8672C16.1604 41.1253 16.8107 41.5129 17.5332 42.0205C18.9774 43.0351 20.6832 44.51 22.3145 46.3369C25.5864 50.0012 28.5 55.0122 28.5 60.5C28.5 66.0698 26.9023 71.0912 24.3447 74.707C21.7863 78.324 18.2984 80.5 14.5 80.5C10.7016 80.5 7.21368 78.324 4.65527 74.707C2.09774 71.0912 0.5 66.0698 0.5 60.5C0.5 55.0122 3.41365 50.0012 6.68555 46.3369C8.31683 44.51 10.0226 43.0351 11.4668 42.0205C12.1893 41.5129 12.8396 41.1253 13.376 40.8672C13.9311 40.6 14.3063 40.5 14.5 40.5Z" fill="white" stroke="#AEAE5A"/>
</svg>
