<svg width="463" height="832" viewBox="0 0 463 832" fill="none" xmlns="http://www.w3.org/2000/svg">
<rect width="399" height="35" transform="matrix(-1 0 0 1 399 63)" fill="#484436"/>
<rect width="399" height="35" transform="matrix(-0.868303 -0.496035 -0.496035 0.868303 399 68.9178)" fill="#484436"/>
<rect width="143.469" height="28.7164" transform="matrix(0.989819 -0.142331 -0.142331 -0.989819 126.097 41.8441)" fill="#484436"/>
<rect width="311.969" height="35" transform="matrix(0.538875 -0.842386 -0.842386 -0.538875 388.888 105.659)" fill="#484436"/>
<rect width="399" height="35" transform="matrix(-0.471595 0.881815 0.881815 0.471595 556.137 -112)" fill="#484436"/>
<rect width="35" height="770" transform="matrix(-1 0 0 1 399 63)" fill="#484436"/>
<path d="M364 97H30C13.4315 97 0 110.431 0 127V279C0 295.569 13.4315 309 30 309H334C350.569 309 364 295.569 364 279V97Z" fill="#4A4A4A"/>
<path d="M207.226 133.326C206.992 133.326 206.875 133.287 206.875 133.209C206.979 132.169 207.083 130.83 207.187 129.192C207.317 127.528 207.395 125.747 207.421 123.849C206.979 123.849 206.524 123.849 206.056 123.849C205.614 123.849 205.198 123.836 204.808 123.81C204.548 123.576 204.366 123.303 204.262 122.991C204.184 122.653 204.145 122.406 204.145 122.25C204.145 122.042 204.184 121.938 204.262 121.938C204.678 122.016 205.12 122.068 205.588 122.094C206.056 122.094 206.667 122.094 207.421 122.094C207.395 120.222 207.278 118.363 207.07 116.517C206.888 114.671 206.576 112.981 206.134 111.447C205.692 109.887 205.081 108.652 204.301 107.742L206.134 105.129C207.564 106.117 208.981 106.949 210.385 107.625C211.815 108.301 213.154 108.925 214.402 109.497C215.676 110.043 216.794 110.615 217.756 111.213C218.744 111.785 219.511 112.461 220.057 113.241C220.629 113.995 220.915 114.931 220.915 116.049C220.915 116.829 220.733 117.635 220.369 118.467C220.031 119.299 219.446 120.092 218.614 120.846C217.782 121.574 216.638 122.211 215.182 122.757C213.752 123.277 211.945 123.615 209.761 123.771C209.631 125.305 209.475 126.826 209.293 128.334C209.111 129.842 208.929 131.311 208.747 132.741C208.565 132.923 208.305 133.066 207.967 133.17C207.655 133.274 207.408 133.326 207.226 133.326ZM209.878 121.899C212.348 121.535 214.142 120.82 215.26 119.754C216.404 118.688 216.976 117.531 216.976 116.283C216.976 115.139 216.638 114.19 215.962 113.436C215.286 112.656 214.376 111.967 213.232 111.369C212.088 110.745 210.801 110.121 209.371 109.497C209.631 110.927 209.8 112.292 209.878 113.592C209.982 114.892 210.034 116.231 210.034 117.609C210.034 118.311 210.021 119.026 209.995 119.754C209.969 120.456 209.93 121.171 209.878 121.899ZM225.964 133.326C225.73 133.326 225.613 133.287 225.613 133.209C225.743 132.091 225.86 130.622 225.964 128.802C226.094 126.956 226.159 124.98 226.159 122.874C225.717 122.874 225.262 122.874 224.794 122.874C224.352 122.874 223.936 122.861 223.546 122.835C223.286 122.601 223.104 122.328 223 122.016C222.922 121.678 222.883 121.431 222.883 121.275C222.883 121.067 222.922 120.963 223 120.963C223.416 121.041 223.858 121.093 224.326 121.119C224.794 121.119 225.392 121.119 226.12 121.119C226.094 119.351 225.977 117.609 225.769 115.893C225.561 114.151 225.236 112.578 224.794 111.174C224.352 109.744 223.767 108.6 223.039 107.742L224.872 105.129C226.302 106.065 227.719 106.858 229.123 107.508C230.553 108.132 231.892 108.704 233.14 109.224C234.414 109.744 235.532 110.29 236.494 110.862C237.482 111.408 238.249 112.045 238.795 112.773C239.367 113.475 239.653 114.359 239.653 115.425C239.653 116.439 239.315 117.505 238.639 118.623C237.963 119.715 236.741 120.638 234.973 121.392C235.571 122.718 236.234 124.096 236.962 125.526C237.716 126.956 238.47 128.308 239.224 129.582C240.004 130.856 240.706 131.909 241.33 132.741C241.33 132.871 241.187 132.975 240.901 133.053C240.641 133.157 240.355 133.209 240.043 133.209C239.965 133.209 239.887 133.209 239.809 133.209C239.731 133.209 239.653 133.196 239.575 133.17C238.873 132.468 238.093 131.545 237.235 130.401C236.403 129.231 235.545 127.944 234.661 126.54C233.777 125.136 232.919 123.719 232.087 122.289C231.567 122.393 231.008 122.497 230.41 122.601C229.838 122.679 229.227 122.744 228.577 122.796C228.473 124.486 228.317 126.176 228.109 127.866C227.901 129.53 227.693 131.155 227.485 132.741C227.303 132.923 227.043 133.066 226.705 133.17C226.393 133.274 226.146 133.326 225.964 133.326ZM228.655 120.924C231.099 120.586 232.88 119.936 233.998 118.974C235.142 117.986 235.714 116.92 235.714 115.776C235.714 114.71 235.376 113.826 234.7 113.124C234.024 112.396 233.114 111.759 231.97 111.213C230.826 110.641 229.539 110.069 228.109 109.497C228.369 110.927 228.538 112.292 228.616 113.592C228.72 114.892 228.772 116.231 228.772 117.609C228.772 118.675 228.733 119.78 228.655 120.924ZM252.029 133.326C250.313 133.326 248.727 132.884 247.271 132C245.841 131.09 244.684 129.777 243.8 128.061C242.942 126.345 242.513 124.239 242.513 121.743C242.513 120.105 242.773 118.415 243.293 116.673C243.839 114.931 244.736 113.293 245.984 111.759C247.232 110.199 248.896 108.873 250.976 107.781C253.082 106.689 255.695 105.974 258.815 105.636L259.478 106.611L258.347 108.873C259.179 109.575 259.933 110.524 260.609 111.72C261.285 112.89 261.818 114.216 262.208 115.698C262.624 117.154 262.832 118.675 262.832 120.261C262.832 121.821 262.637 123.381 262.247 124.941C261.857 126.475 261.233 127.879 260.375 129.153C259.543 130.427 258.438 131.441 257.06 132.195C255.682 132.949 254.005 133.326 252.029 133.326ZM253.004 130.089C254.642 130.037 256.007 129.595 257.099 128.763C258.191 127.931 258.997 126.839 259.517 125.487C260.063 124.135 260.336 122.653 260.336 121.041C260.336 119.845 260.18 118.519 259.868 117.063C259.556 115.607 259.075 114.19 258.425 112.812C257.801 111.408 257.008 110.225 256.046 109.263C252.64 109.757 250.157 111.018 248.597 113.046C247.037 115.074 246.257 117.609 246.257 120.651C246.257 122.627 246.569 124.33 247.193 125.76C247.843 127.164 248.675 128.243 249.689 128.997C250.729 129.725 251.834 130.089 253.004 130.089ZM265.876 140.424C264.836 140.424 263.913 139.969 263.107 139.059C262.301 138.175 261.833 136.784 261.703 134.886L264.589 133.482L265.486 134.028C265.486 134.99 265.668 135.783 266.032 136.407C266.422 137.031 266.877 137.343 267.397 137.343C267.995 137.343 268.619 136.862 269.269 135.9C269.919 134.938 270.465 133.339 270.907 131.103C271.375 128.841 271.609 125.799 271.609 121.977C271.609 121.197 271.583 120.157 271.531 118.857C271.505 117.557 271.453 116.192 271.375 114.762C271.323 113.332 271.245 112.032 271.141 110.862C270.907 110.888 270.66 110.914 270.4 110.94C270.166 110.94 269.932 110.94 269.698 110.94C268.736 110.94 267.761 110.823 266.773 110.589L266.344 109.575L267.358 106.221C268.034 106.715 268.788 107.066 269.62 107.274C270.452 107.456 271.349 107.547 272.311 107.547C273.455 107.547 274.56 107.43 275.626 107.196C276.718 106.962 277.628 106.728 278.356 106.494C278.46 106.494 278.512 106.611 278.512 106.845C278.512 107.027 278.46 107.287 278.356 107.625C278.252 107.937 278.109 108.171 277.927 108.327C277.511 108.587 277.095 108.834 276.679 109.068C276.263 109.276 275.847 109.471 275.431 109.653C275.379 110.927 275.314 112.37 275.236 113.982C275.158 115.568 275.054 117.245 274.924 119.013C274.794 120.755 274.638 122.484 274.456 124.2C274.3 125.89 274.105 127.476 273.871 128.958C273.663 130.44 273.416 131.701 273.13 132.741C272.688 134.379 272.064 135.77 271.258 136.914C270.452 138.058 269.581 138.929 268.645 139.527C267.709 140.125 266.786 140.424 265.876 140.424ZM290.62 133.287C289.294 133.287 288.176 132.936 287.266 132.234C286.382 131.532 285.68 130.57 285.16 129.348C284.64 128.126 284.263 126.748 284.029 125.214C283.795 123.654 283.665 122.029 283.639 120.339L282.859 120.183C282.599 120.105 282.365 119.832 282.157 119.364C281.949 118.87 281.832 118.519 281.806 118.311C281.806 118.181 281.832 118.116 281.884 118.116C281.936 118.09 281.975 118.077 282.001 118.077C282.287 118.103 282.573 118.142 282.859 118.194C283.145 118.22 283.418 118.246 283.678 118.272C283.704 117.544 283.743 116.634 283.795 115.542C283.873 114.424 283.951 113.306 284.029 112.188C284.133 111.044 284.25 110.082 284.38 109.302C284.224 109.25 284.068 109.211 283.912 109.185C283.756 109.159 283.6 109.12 283.444 109.068C283.184 108.886 282.989 108.613 282.859 108.249C282.729 107.885 282.664 107.638 282.664 107.508C282.664 107.378 282.69 107.313 282.742 107.313L285.511 107.547L288.358 105.597L289.372 106.221L288.904 107.586C290.594 107.56 292.271 107.404 293.935 107.118C295.599 106.832 297.159 106.325 298.615 105.597L299.278 106.611L297.991 109.965C296.171 110.199 294.39 110.316 292.648 110.316C291.92 110.316 291.192 110.303 290.464 110.277C289.762 110.225 289.047 110.147 288.319 110.043C288.059 111.213 287.799 112.526 287.539 113.982C287.305 115.412 287.123 116.881 286.993 118.389H287.89C289.658 118.389 291.166 118.246 292.414 117.96C293.688 117.674 294.741 117.362 295.573 117.024L295.924 117.687L294.754 120.378C294.026 120.508 293.22 120.612 292.336 120.69C291.478 120.768 290.672 120.807 289.918 120.807C288.878 120.807 287.851 120.768 286.837 120.69C286.811 120.95 286.798 121.21 286.798 121.47C286.798 121.73 286.798 121.99 286.798 122.25C286.798 123.836 286.954 125.305 287.266 126.657C287.578 127.983 288.046 129.049 288.67 129.855C289.32 130.635 290.139 131.025 291.127 131.025C292.765 131.025 294.039 130.453 294.949 129.309C295.859 128.139 296.639 126.371 297.289 124.005C297.341 123.797 297.432 123.693 297.562 123.693C297.692 123.693 297.861 123.732 298.069 123.81C298.303 123.888 298.537 124.031 298.771 124.239C298.433 125.929 297.926 127.463 297.25 128.841C296.6 130.219 295.729 131.298 294.637 132.078C293.571 132.884 292.232 133.287 290.62 133.287ZM309.73 133.248C308.066 133.248 306.636 132.78 305.44 131.844C304.27 130.908 303.373 129.608 302.749 127.944C302.125 126.254 301.813 124.33 301.813 122.172C301.813 120.56 302.086 118.896 302.632 117.18C303.204 115.438 304.114 113.774 305.362 112.188C306.61 110.602 308.274 109.224 310.354 108.054C312.434 106.884 314.995 106.065 318.037 105.597L318.7 106.611L317.413 109.965C316.997 109.913 316.594 109.874 316.204 109.848C315.84 109.822 315.476 109.809 315.112 109.809C313.188 109.809 311.589 110.134 310.315 110.784C309.041 111.408 308.04 112.24 307.312 113.28C306.584 114.294 306.064 115.399 305.752 116.595C305.44 117.791 305.284 118.935 305.284 120.027C305.284 122.289 305.518 124.148 305.986 125.604C306.48 127.06 307.117 128.139 307.897 128.841C308.677 129.517 309.483 129.855 310.315 129.855C312.135 129.855 313.63 129.14 314.8 127.71C315.996 126.254 316.997 124.109 317.803 121.275C317.855 121.067 317.946 120.963 318.076 120.963C318.206 120.963 318.375 121.002 318.583 121.08C318.817 121.158 319.051 121.301 319.285 121.509C318.921 123.979 318.232 126.098 317.218 127.866C316.23 129.608 315.073 130.947 313.747 131.883C312.421 132.793 311.082 133.248 309.73 133.248ZM327.135 133.287C326.953 133.287 326.862 133.248 326.862 133.17C327.2 131.168 327.421 129.231 327.525 127.359C327.655 125.487 327.72 123.693 327.72 121.977C327.72 121.197 327.694 120.157 327.642 118.857C327.616 117.557 327.564 116.205 327.486 114.801C327.434 113.371 327.356 112.071 327.252 110.901C326.914 110.927 326.576 110.94 326.238 110.94C325.926 110.94 325.601 110.94 325.263 110.94C323.885 110.94 322.494 110.823 321.09 110.589L320.466 109.575L321.948 106.221C322.884 106.715 323.95 107.066 325.146 107.274C326.342 107.456 327.642 107.547 329.046 107.547C330.71 107.547 332.309 107.43 333.843 107.196C335.377 106.962 336.612 106.728 337.548 106.494C337.652 106.494 337.704 106.611 337.704 106.845C337.704 107.027 337.652 107.287 337.548 107.625C337.444 107.937 337.301 108.171 337.119 108.327C336.105 108.743 335.104 109.12 334.116 109.458C333.128 109.796 332.14 110.082 331.152 110.316C331.074 111.876 330.97 113.67 330.84 115.698C330.736 117.7 330.58 119.767 330.372 121.899C330.19 124.005 329.969 126.007 329.709 127.905C329.449 129.803 329.15 131.415 328.812 132.741C328.63 132.923 328.357 133.053 327.993 133.131C327.629 133.235 327.343 133.287 327.135 133.287ZM342.541 133.092C341.813 133.092 341.111 133.053 340.435 132.975C339.785 132.923 338.953 132.741 337.939 132.429C337.809 132.221 337.705 131.974 337.627 131.688C337.549 131.376 337.51 131.155 337.51 131.025C337.51 130.843 337.523 130.752 337.549 130.752C337.731 130.752 338.121 130.856 338.719 131.064C339.343 131.246 340.214 131.337 341.332 131.337C343.542 131.337 345.323 130.895 346.675 130.011C348.027 129.127 348.703 127.996 348.703 126.618C348.703 125.682 348.378 124.811 347.728 124.005C347.104 123.173 346.311 122.38 345.349 121.626C344.413 120.872 343.464 120.105 342.502 119.325C341.566 118.545 340.773 117.726 340.123 116.868C339.499 116.01 339.187 115.074 339.187 114.06C339.187 113.54 339.343 112.916 339.655 112.188C339.967 111.46 340.578 110.706 341.488 109.926C342.424 109.146 343.789 108.418 345.583 107.742C347.377 107.066 349.769 106.52 352.759 106.104L353.422 107.118L352.135 110.472C350.861 109.796 349.392 109.458 347.728 109.458C346.922 109.458 346.155 109.562 345.427 109.77C344.699 109.978 344.101 110.329 343.633 110.823C343.165 111.317 342.931 111.993 342.931 112.851C342.931 113.605 343.178 114.32 343.672 114.996C344.166 115.646 344.79 116.296 345.544 116.946C346.324 117.57 347.143 118.207 348.001 118.857C348.859 119.507 349.665 120.196 350.419 120.924C351.199 121.626 351.836 122.393 352.33 123.225C352.824 124.057 353.071 124.967 353.071 125.955C353.071 126.579 352.928 127.307 352.642 128.139C352.356 128.945 351.836 129.725 351.082 130.479C350.328 131.233 349.262 131.857 347.884 132.351C346.506 132.845 344.725 133.092 342.541 133.092Z" fill="#202020"/>
</svg>
