<svg width="411" height="500" viewBox="0 0 411 500" fill="none" xmlns="http://www.w3.org/2000/svg">
<rect width="373.17" height="21.8533" transform="matrix(-1 0 0 1 373.17 19.227)" fill="#484436"/>
<rect width="346.79" height="24.9742" transform="matrix(-0.934355 -0.356343 -0.650163 0.759795 373.17 22.9219)" fill="#484436"/>
<rect width="133.426" height="18.1544" transform="matrix(0.995424 -0.0955577 -0.210562 -0.977581 117.934 6.01761)" fill="#484436"/>
<rect width="227.256" height="29.9842" transform="matrix(0.691859 -0.722032 -0.919647 -0.392747 363.713 45.8625)" fill="#484436"/>
<rect width="281.482" height="30.6502" transform="matrix(-0.62521 0.780457 0.941775 0.336244 520.135 -90.0396)" fill="#484436"/>
<rect width="32.7342" height="480.773" transform="matrix(-1 0 0 1 373.17 19.227)" fill="#484436"/>
<path d="M340 40H3.05176e-05V169C3.05176e-05 185.569 13.4315 199 30 199H310C326.569 199 340 185.569 340 169V40Z" fill="#4A4A4A"/>
<path d="M220.886 67.4115C220.712 67.4115 220.625 67.3825 220.625 67.3245C220.702 66.5512 220.78 65.5555 220.857 64.3375C220.954 63.1002 221.012 61.7759 221.031 60.3645C220.702 60.3645 220.364 60.3645 220.016 60.3645C219.687 60.3645 219.378 60.3549 219.088 60.3355C218.895 60.1615 218.759 59.9585 218.682 59.7265C218.624 59.4752 218.595 59.2915 218.595 59.1755C218.595 59.0209 218.624 58.9435 218.682 58.9435C218.991 59.0015 219.32 59.0402 219.668 59.0595C220.016 59.0595 220.47 59.0595 221.031 59.0595C221.012 57.6675 220.925 56.2852 220.77 54.9125C220.635 53.5399 220.403 52.2832 220.074 51.1425C219.745 49.9825 219.291 49.0642 218.711 48.3875L220.074 46.4445C221.137 47.1792 222.191 47.7979 223.235 48.3005C224.298 48.8032 225.294 49.2672 226.222 49.6925C227.169 50.0985 228.001 50.5239 228.716 50.9685C229.451 51.3939 230.021 51.8965 230.427 52.4765C230.852 53.0372 231.065 53.7332 231.065 54.5645C231.065 55.1445 230.93 55.7439 230.659 56.3625C230.408 56.9812 229.973 57.5709 229.354 58.1315C228.735 58.6729 227.885 59.1465 226.802 59.5525C225.739 59.9392 224.395 60.1905 222.771 60.3065C222.674 61.4472 222.558 62.5782 222.423 63.6995C222.288 64.8209 222.152 65.9132 222.017 66.9765C221.882 67.1119 221.688 67.2182 221.437 67.2955C221.205 67.3729 221.021 67.4115 220.886 67.4115ZM222.858 58.9145C224.695 58.6439 226.029 58.1122 226.86 57.3195C227.711 56.5269 228.136 55.6665 228.136 54.7385C228.136 53.8879 227.885 53.1822 227.382 52.6215C226.879 52.0415 226.203 51.5292 225.352 51.0845C224.501 50.6205 223.544 50.1565 222.481 49.6925C222.674 50.7559 222.8 51.7709 222.858 52.7375C222.935 53.7042 222.974 54.6999 222.974 55.7245C222.974 56.2465 222.964 56.7782 222.945 57.3195C222.926 57.8415 222.897 58.3732 222.858 58.9145ZM234.82 67.4115C234.646 67.4115 234.559 67.3825 234.559 67.3245C234.655 66.4932 234.742 65.4009 234.82 64.0475C234.916 62.6749 234.965 61.2055 234.965 59.6395C234.636 59.6395 234.298 59.6395 233.95 59.6395C233.621 59.6395 233.312 59.6299 233.022 59.6105C232.828 59.4365 232.693 59.2335 232.616 59.0015C232.558 58.7502 232.529 58.5665 232.529 58.4505C232.529 58.2959 232.558 58.2185 232.616 58.2185C232.925 58.2765 233.254 58.3152 233.602 58.3345C233.95 58.3345 234.394 58.3345 234.936 58.3345C234.916 57.0199 234.829 55.7245 234.675 54.4485C234.52 53.1532 234.278 51.9835 233.95 50.9395C233.621 49.8762 233.186 49.0255 232.645 48.3875L234.008 46.4445C235.071 47.1405 236.125 47.7302 237.169 48.2135C238.232 48.6775 239.228 49.1029 240.156 49.4895C241.103 49.8762 241.934 50.2822 242.65 50.7075C243.384 51.1135 243.955 51.5872 244.361 52.1285C244.786 52.6505 244.999 53.3079 244.999 54.1005C244.999 54.8545 244.747 55.6472 244.245 56.4785C243.742 57.2905 242.833 57.9769 241.519 58.5375C241.963 59.5235 242.456 60.5482 242.998 61.6115C243.558 62.6749 244.119 63.6802 244.68 64.6275C245.26 65.5749 245.782 66.3579 246.246 66.9765C246.246 67.0732 246.139 67.1505 245.927 67.2085C245.733 67.2859 245.521 67.3245 245.289 67.3245C245.231 67.3245 245.173 67.3245 245.115 67.3245C245.057 67.3245 244.999 67.3149 244.941 67.2955C244.419 66.7735 243.839 66.0872 243.201 65.2365C242.582 64.3665 241.944 63.4095 241.287 62.3655C240.629 61.3215 239.991 60.2679 239.373 59.2045C238.986 59.2819 238.57 59.3592 238.126 59.4365C237.7 59.4945 237.246 59.5429 236.763 59.5815C236.685 60.8382 236.569 62.0949 236.415 63.3515C236.26 64.5889 236.105 65.7972 235.951 66.9765C235.815 67.1119 235.622 67.2182 235.371 67.2955C235.139 67.3729 234.955 67.4115 234.82 67.4115ZM236.821 58.1895C238.638 57.9382 239.962 57.4549 240.794 56.7395C241.644 56.0049 242.07 55.2122 242.07 54.3615C242.07 53.5689 241.818 52.9115 241.316 52.3895C240.813 51.8482 240.136 51.3745 239.286 50.9685C238.435 50.5432 237.478 50.1179 236.415 49.6925C236.608 50.7559 236.734 51.7709 236.792 52.7375C236.869 53.7042 236.908 54.6999 236.908 55.7245C236.908 56.5172 236.879 57.3389 236.821 58.1895ZM254.201 67.4115C252.925 67.4115 251.746 67.0829 250.663 66.4255C249.6 65.7489 248.739 64.7725 248.082 63.4965C247.444 62.2205 247.125 60.6545 247.125 58.7985C247.125 57.5805 247.318 56.3239 247.705 55.0285C248.111 53.7332 248.778 52.5152 249.706 51.3745C250.634 50.2145 251.871 49.2285 253.418 48.4165C254.984 47.6045 256.927 47.0729 259.247 46.8215L259.74 47.5465L258.899 49.2285C259.518 49.7505 260.078 50.4562 260.581 51.3455C261.084 52.2155 261.48 53.2015 261.77 54.3035C262.079 55.3862 262.234 56.5172 262.234 57.6965C262.234 58.8565 262.089 60.0165 261.799 61.1765C261.509 62.3172 261.045 63.3612 260.407 64.3085C259.788 65.2559 258.967 66.0099 257.942 66.5705C256.917 67.1312 255.67 67.4115 254.201 67.4115ZM254.926 65.0045C256.144 64.9659 257.159 64.6372 257.971 64.0185C258.783 63.3999 259.382 62.5879 259.769 61.5825C260.175 60.5772 260.378 59.4752 260.378 58.2765C260.378 57.3872 260.262 56.4012 260.03 55.3185C259.798 54.2359 259.44 53.1822 258.957 52.1575C258.493 51.1135 257.903 50.2339 257.188 49.5185C254.655 49.8859 252.809 50.8235 251.649 52.3315C250.489 53.8395 249.909 55.7245 249.909 57.9865C249.909 59.4559 250.141 60.7222 250.605 61.7855C251.088 62.8295 251.707 63.6319 252.461 64.1925C253.234 64.7339 254.056 65.0045 254.926 65.0045ZM264.497 72.6895C263.724 72.6895 263.038 72.3512 262.438 71.6745C261.839 71.0172 261.491 69.9829 261.394 68.5715L263.54 67.5275L264.207 67.9335C264.207 68.6489 264.343 69.2385 264.613 69.7025C264.903 70.1665 265.242 70.3985 265.628 70.3985C266.073 70.3985 266.537 70.0409 267.02 69.3255C267.504 68.6102 267.91 67.4212 268.238 65.7585C268.586 64.0765 268.76 61.8145 268.76 58.9725C268.76 58.3925 268.741 57.6192 268.702 56.6525C268.683 55.6859 268.644 54.6709 268.586 53.6075C268.548 52.5442 268.49 51.5775 268.412 50.7075C268.238 50.7269 268.055 50.7462 267.861 50.7655C267.687 50.7655 267.513 50.7655 267.339 50.7655C266.624 50.7655 265.899 50.6785 265.164 50.5045L264.845 49.7505L265.599 47.2565C266.102 47.6239 266.663 47.8849 267.281 48.0395C267.9 48.1749 268.567 48.2425 269.282 48.2425C270.133 48.2425 270.955 48.1555 271.747 47.9815C272.559 47.8075 273.236 47.6335 273.778 47.4595C273.855 47.4595 273.893 47.5465 273.893 47.7205C273.893 47.8559 273.855 48.0492 273.778 48.3005C273.7 48.5325 273.594 48.7065 273.458 48.8225C273.149 49.0159 272.84 49.1995 272.53 49.3735C272.221 49.5282 271.912 49.6732 271.602 49.8085C271.564 50.7559 271.515 51.8289 271.457 53.0275C271.399 54.2069 271.322 55.4539 271.225 56.7685C271.129 58.0639 271.013 59.3495 270.877 60.6255C270.761 61.8822 270.616 63.0615 270.442 64.1635C270.288 65.2655 270.104 66.2032 269.891 66.9765C269.563 68.1945 269.099 69.2289 268.499 70.0795C267.9 70.9302 267.252 71.5779 266.556 72.0225C265.86 72.4672 265.174 72.6895 264.497 72.6895ZM282.897 67.3825C281.911 67.3825 281.08 67.1215 280.403 66.5995C279.746 66.0775 279.224 65.3622 278.837 64.4535C278.45 63.5449 278.17 62.5202 277.996 61.3795C277.822 60.2195 277.725 59.0112 277.706 57.7545L277.126 57.6385C276.933 57.5805 276.759 57.3775 276.604 57.0295C276.449 56.6622 276.362 56.4012 276.343 56.2465C276.343 56.1499 276.362 56.1015 276.401 56.1015C276.44 56.0822 276.469 56.0725 276.488 56.0725C276.701 56.0919 276.913 56.1209 277.126 56.1595C277.339 56.1789 277.542 56.1982 277.735 56.2175C277.754 55.6762 277.783 54.9995 277.822 54.1875C277.88 53.3562 277.938 52.5249 277.996 51.6935C278.073 50.8429 278.16 50.1275 278.257 49.5475C278.141 49.5089 278.025 49.4799 277.909 49.4605C277.793 49.4412 277.677 49.4122 277.561 49.3735C277.368 49.2382 277.223 49.0352 277.126 48.7645C277.029 48.4939 276.981 48.3102 276.981 48.2135C276.981 48.1169 277 48.0685 277.039 48.0685L279.098 48.2425L281.215 46.7925L281.969 47.2565L281.621 48.2715C282.878 48.2522 284.125 48.1362 285.362 47.9235C286.599 47.7109 287.759 47.3339 288.842 46.7925L289.335 47.5465L288.378 50.0405C287.025 50.2145 285.7 50.3015 284.405 50.3015C283.864 50.3015 283.322 50.2919 282.781 50.2725C282.259 50.2339 281.727 50.1759 281.186 50.0985C280.993 50.9685 280.799 51.9449 280.606 53.0275C280.432 54.0909 280.297 55.1832 280.2 56.3045H280.867C282.182 56.3045 283.303 56.1982 284.231 55.9855C285.178 55.7729 285.961 55.5409 286.58 55.2895L286.841 55.7825L285.971 57.7835C285.43 57.8802 284.83 57.9575 284.173 58.0155C283.535 58.0735 282.936 58.1025 282.375 58.1025C281.602 58.1025 280.838 58.0735 280.084 58.0155C280.065 58.2089 280.055 58.4022 280.055 58.5955C280.055 58.7889 280.055 58.9822 280.055 59.1755C280.055 60.3549 280.171 61.4472 280.403 62.4525C280.635 63.4385 280.983 64.2312 281.447 64.8305C281.93 65.4105 282.539 65.7005 283.274 65.7005C284.492 65.7005 285.439 65.2752 286.116 64.4245C286.793 63.5545 287.373 62.2399 287.856 60.4805C287.895 60.3259 287.962 60.2485 288.059 60.2485C288.156 60.2485 288.281 60.2775 288.436 60.3355C288.61 60.3935 288.784 60.4999 288.958 60.6545C288.707 61.9112 288.33 63.0519 287.827 64.0765C287.344 65.1012 286.696 65.9035 285.884 66.4835C285.091 67.0829 284.096 67.3825 282.897 67.3825ZM297.107 67.3535C295.869 67.3535 294.806 67.0055 293.917 66.3095C293.047 65.6135 292.38 64.6469 291.916 63.4095C291.452 62.1529 291.22 60.7222 291.22 59.1175C291.22 57.9189 291.423 56.6815 291.829 55.4055C292.254 54.1102 292.931 52.8729 293.859 51.6935C294.787 50.5142 296.024 49.4895 297.571 48.6195C299.117 47.7495 301.022 47.1405 303.284 46.7925L303.777 47.5465L302.82 50.0405C302.51 50.0019 302.211 49.9729 301.921 49.9535C301.65 49.9342 301.379 49.9245 301.109 49.9245C299.678 49.9245 298.489 50.1662 297.542 50.6495C296.594 51.1135 295.85 51.7322 295.309 52.5055C294.767 53.2595 294.381 54.0812 294.149 54.9705C293.917 55.8599 293.801 56.7105 293.801 57.5225C293.801 59.2045 293.975 60.5869 294.323 61.6695C294.69 62.7522 295.164 63.5545 295.744 64.0765C296.324 64.5792 296.923 64.8305 297.542 64.8305C298.895 64.8305 300.007 64.2989 300.877 63.2355C301.766 62.1529 302.51 60.5579 303.11 58.4505C303.148 58.2959 303.216 58.2185 303.313 58.2185C303.409 58.2185 303.535 58.2475 303.69 58.3055C303.864 58.3635 304.038 58.4699 304.212 58.6245C303.941 60.4612 303.429 62.0369 302.675 63.3515C301.94 64.6469 301.08 65.6425 300.094 66.3385C299.108 67.0152 298.112 67.3535 297.107 67.3535ZM310.049 67.3825C309.913 67.3825 309.846 67.3535 309.846 67.2955C310.097 65.8069 310.261 64.3665 310.339 62.9745C310.435 61.5825 310.484 60.2485 310.484 58.9725C310.484 58.3925 310.464 57.6192 310.426 56.6525C310.406 55.6859 310.368 54.6805 310.31 53.6365C310.271 52.5732 310.213 51.6065 310.136 50.7365C309.884 50.7559 309.633 50.7655 309.382 50.7655C309.15 50.7655 308.908 50.7655 308.657 50.7655C307.632 50.7655 306.598 50.6785 305.554 50.5045L305.09 49.7505L306.192 47.2565C306.888 47.6239 307.68 47.8849 308.57 48.0395C309.459 48.1749 310.426 48.2425 311.47 48.2425C312.707 48.2425 313.896 48.1555 315.037 47.9815C316.177 47.8075 317.096 47.6335 317.792 47.4595C317.869 47.4595 317.908 47.5465 317.908 47.7205C317.908 47.8559 317.869 48.0492 317.792 48.3005C317.714 48.5325 317.608 48.7065 317.473 48.8225C316.719 49.1319 315.974 49.4122 315.24 49.6635C314.505 49.9149 313.77 50.1275 313.036 50.3015C312.978 51.4615 312.9 52.7955 312.804 54.3035C312.726 55.7922 312.61 57.3292 312.456 58.9145C312.32 60.4805 312.156 61.9692 311.963 63.3805C311.769 64.7919 311.547 65.9905 311.296 66.9765C311.16 67.1119 310.957 67.2085 310.687 67.2665C310.416 67.3439 310.203 67.3825 310.049 67.3825ZM321.505 67.2375C320.963 67.2375 320.441 67.2085 319.939 67.1505C319.455 67.1119 318.837 66.9765 318.083 66.7445C317.986 66.5899 317.909 66.4062 317.851 66.1935C317.793 65.9615 317.764 65.7972 317.764 65.7005C317.764 65.5652 317.773 65.4975 317.793 65.4975C317.928 65.4975 318.218 65.5749 318.663 65.7295C319.127 65.8649 319.774 65.9325 320.606 65.9325C322.249 65.9325 323.573 65.6039 324.579 64.9465C325.584 64.2892 326.087 63.4482 326.087 62.4235C326.087 61.7275 325.845 61.0799 325.362 60.4805C324.898 59.8619 324.308 59.2722 323.593 58.7115C322.897 58.1509 322.191 57.5805 321.476 57.0005C320.78 56.4205 320.19 55.8115 319.707 55.1735C319.243 54.5355 319.011 53.8395 319.011 53.0855C319.011 52.6989 319.127 52.2349 319.359 51.6935C319.591 51.1522 320.045 50.5915 320.722 50.0115C321.418 49.4315 322.433 48.8902 323.767 48.3875C325.101 47.8849 326.879 47.4789 329.103 47.1695L329.596 47.9235L328.639 50.4175C327.691 49.9149 326.599 49.6635 325.362 49.6635C324.762 49.6635 324.192 49.7409 323.651 49.8955C323.109 50.0502 322.665 50.3112 322.317 50.6785C321.969 51.0459 321.795 51.5485 321.795 52.1865C321.795 52.7472 321.978 53.2789 322.346 53.7815C322.713 54.2649 323.177 54.7482 323.738 55.2315C324.318 55.6955 324.927 56.1692 325.565 56.6525C326.203 57.1359 326.802 57.6482 327.363 58.1895C327.943 58.7115 328.416 59.2819 328.784 59.9005C329.151 60.5192 329.335 61.1959 329.335 61.9305C329.335 62.3945 329.228 62.9359 329.016 63.5545C328.803 64.1539 328.416 64.7339 327.856 65.2945C327.295 65.8552 326.502 66.3192 325.478 66.6865C324.453 67.0539 323.129 67.2375 321.505 67.2375Z" fill="#202020"/>
</svg>
