<svg width="399" height="487" viewBox="0 0 399 487" fill="none" xmlns="http://www.w3.org/2000/svg">
<path d="M0 138C0 79.4578 47.4578 32 106 32H364V244H106C47.4578 244 0 196.542 0 138V138Z" fill="#4A3B0A"/>
<rect x="364" width="35" height="487" fill="#4A3B0A"/>
<path d="M107.031 75.092C106.303 75.092 105.601 75.053 104.925 74.975C104.275 74.923 103.443 74.741 102.429 74.429C102.299 74.221 102.195 73.974 102.117 73.688C102.039 73.376 102 73.155 102 73.025C102 72.843 102.013 72.752 102.039 72.752C102.221 72.752 102.611 72.856 103.209 73.064C103.833 73.246 104.704 73.337 105.822 73.337C108.032 73.337 109.813 72.895 111.165 72.011C112.517 71.127 113.193 69.996 113.193 68.618C113.193 67.682 112.868 66.811 112.218 66.005C111.594 65.173 110.801 64.38 109.839 63.626C108.903 62.872 107.954 62.105 106.992 61.325C106.056 60.545 105.263 59.726 104.613 58.868C103.989 58.01 103.677 57.074 103.677 56.06C103.677 55.54 103.833 54.916 104.145 54.188C104.457 53.46 105.068 52.706 105.978 51.926C106.914 51.146 108.279 50.418 110.073 49.742C111.867 49.066 114.259 48.52 117.249 48.104L117.912 49.118L116.625 52.472C115.351 51.796 113.882 51.458 112.218 51.458C111.412 51.458 110.645 51.562 109.917 51.77C109.189 51.978 108.591 52.329 108.123 52.823C107.655 53.317 107.421 53.993 107.421 54.851C107.421 55.605 107.668 56.32 108.162 56.996C108.656 57.646 109.28 58.296 110.034 58.946C110.814 59.57 111.633 60.207 112.491 60.857C113.349 61.507 114.155 62.196 114.909 62.924C115.689 63.626 116.326 64.393 116.82 65.225C117.314 66.057 117.561 66.967 117.561 67.955C117.561 68.579 117.418 69.307 117.132 70.139C116.846 70.945 116.326 71.725 115.572 72.479C114.818 73.233 113.752 73.857 112.374 74.351C110.996 74.845 109.215 75.092 107.031 75.092ZM126.55 75.287C126.368 75.287 126.277 75.248 126.277 75.17C126.615 73.168 126.836 71.231 126.94 69.359C127.07 67.487 127.135 65.693 127.135 63.977C127.135 63.197 127.109 62.157 127.057 60.857C127.031 59.557 126.979 58.205 126.901 56.801C126.849 55.371 126.771 54.071 126.667 52.901C126.329 52.927 125.991 52.94 125.653 52.94C125.341 52.94 125.016 52.94 124.678 52.94C123.3 52.94 121.909 52.823 120.505 52.589L119.881 51.575L121.363 48.221C122.299 48.715 123.365 49.066 124.561 49.274C125.757 49.456 127.057 49.547 128.461 49.547C130.125 49.547 131.724 49.43 133.258 49.196C134.792 48.962 136.027 48.728 136.963 48.494C137.067 48.494 137.119 48.611 137.119 48.845C137.119 49.027 137.067 49.287 136.963 49.625C136.859 49.937 136.716 50.171 136.534 50.327C135.52 50.743 134.519 51.12 133.531 51.458C132.543 51.796 131.555 52.082 130.567 52.316C130.489 53.876 130.385 55.67 130.255 57.698C130.151 59.7 129.995 61.767 129.787 63.899C129.605 66.005 129.384 68.007 129.124 69.905C128.864 71.803 128.565 73.415 128.227 74.741C128.045 74.923 127.772 75.053 127.408 75.131C127.044 75.235 126.758 75.287 126.55 75.287ZM133.905 75.326C133.879 75.326 133.801 75.313 133.671 75.287C133.515 75.287 133.437 75.261 133.437 75.209C133.957 74.195 134.555 72.934 135.231 71.426C135.907 69.892 136.609 68.254 137.337 66.512C137.103 66.46 136.856 66.408 136.596 66.356C136.362 66.304 136.115 66.252 135.855 66.2C135.673 65.992 135.53 65.693 135.426 65.303C135.322 64.887 135.27 64.614 135.27 64.484C135.27 64.302 135.309 64.211 135.387 64.211C135.543 64.211 135.829 64.276 136.245 64.406C136.687 64.536 137.285 64.64 138.039 64.718C138.741 63.002 139.417 61.26 140.067 59.492C140.743 57.698 141.354 55.982 141.9 54.344C142.446 52.68 142.888 51.185 143.226 49.859L147.516 47.597C147.724 47.597 148.01 47.662 148.374 47.792C148.738 47.896 149.024 48.078 149.232 48.338C149.154 49.014 149.102 49.716 149.076 50.444C149.05 51.146 149.037 51.848 149.037 52.55C149.037 54.682 149.154 56.827 149.388 58.985C149.622 61.117 149.921 63.184 150.285 65.186C150.649 67.162 151.026 69.008 151.416 70.724C151.832 72.44 152.209 73.935 152.547 75.209C152.547 75.287 152.443 75.326 152.235 75.326C151.845 75.326 151.533 75.274 151.299 75.17C151.065 75.066 150.87 74.923 150.714 74.741C150.298 73.831 149.83 72.648 149.31 71.192C148.816 69.736 148.322 68.163 147.828 66.473C146.06 66.759 144.266 66.902 142.446 66.902C141.952 66.902 141.484 66.902 141.042 66.902C140.6 66.876 140.158 66.85 139.716 66.824C139.118 68.072 138.481 69.346 137.805 70.646C137.129 71.946 136.401 73.311 135.621 74.741C135.413 74.923 135.166 75.066 134.88 75.17C134.594 75.274 134.269 75.326 133.905 75.326ZM140.652 64.835C141.692 64.809 142.771 64.731 143.889 64.601C145.007 64.471 146.099 64.25 147.165 63.938C146.697 62.17 146.281 60.389 145.917 58.595C145.553 56.801 145.293 55.15 145.137 53.642C144.383 55.722 143.642 57.672 142.914 59.492C142.186 61.286 141.432 63.067 140.652 64.835ZM159.456 75.287C159.274 75.287 159.183 75.248 159.183 75.17C159.521 73.168 159.742 71.231 159.846 69.359C159.976 67.487 160.041 65.693 160.041 63.977C160.041 63.197 160.015 62.157 159.963 60.857C159.937 59.557 159.885 58.205 159.807 56.801C159.755 55.371 159.677 54.071 159.573 52.901C159.235 52.927 158.897 52.94 158.559 52.94C158.247 52.94 157.922 52.94 157.584 52.94C156.206 52.94 154.815 52.823 153.411 52.589L152.787 51.575L154.269 48.221C155.205 48.715 156.271 49.066 157.467 49.274C158.663 49.456 159.963 49.547 161.367 49.547C163.031 49.547 164.63 49.43 166.164 49.196C167.698 48.962 168.933 48.728 169.869 48.494C169.973 48.494 170.025 48.611 170.025 48.845C170.025 49.027 169.973 49.287 169.869 49.625C169.765 49.937 169.622 50.171 169.44 50.327C168.426 50.743 167.425 51.12 166.437 51.458C165.449 51.796 164.461 52.082 163.473 52.316C163.395 53.876 163.291 55.67 163.161 57.698C163.057 59.7 162.901 61.767 162.693 63.899C162.511 66.005 162.29 68.007 162.03 69.905C161.77 71.803 161.471 73.415 161.133 74.741C160.951 74.923 160.678 75.053 160.314 75.131C159.95 75.235 159.664 75.287 159.456 75.287ZM173.653 75.287C173.445 75.287 173.341 75.235 173.341 75.131C173.627 73.285 173.822 71.504 173.926 69.788C174.03 68.072 174.082 66.421 174.082 64.835C174.082 63.093 174.043 61.26 173.965 59.336C173.887 57.412 173.757 55.501 173.575 53.603C173.419 51.705 173.211 49.937 172.951 48.299L173.965 47.597L177.475 49.391C177.449 50.769 177.384 52.355 177.28 54.149C177.202 55.917 177.098 57.776 176.968 59.726C176.864 61.65 176.734 63.548 176.578 65.42C176.422 67.292 176.24 69.034 176.032 70.646C175.85 72.232 175.655 73.571 175.447 74.663C175.291 74.845 175.005 74.988 174.589 75.092C174.173 75.222 173.861 75.287 173.653 75.287ZM185.031 75.092C184.303 75.092 183.601 75.053 182.925 74.975C182.275 74.923 181.443 74.741 180.429 74.429C180.299 74.221 180.195 73.974 180.117 73.688C180.039 73.376 180 73.155 180 73.025C180 72.843 180.013 72.752 180.039 72.752C180.221 72.752 180.611 72.856 181.209 73.064C181.833 73.246 182.704 73.337 183.822 73.337C186.032 73.337 187.813 72.895 189.165 72.011C190.517 71.127 191.193 69.996 191.193 68.618C191.193 67.682 190.868 66.811 190.218 66.005C189.594 65.173 188.801 64.38 187.839 63.626C186.903 62.872 185.954 62.105 184.992 61.325C184.056 60.545 183.263 59.726 182.613 58.868C181.989 58.01 181.677 57.074 181.677 56.06C181.677 55.54 181.833 54.916 182.145 54.188C182.457 53.46 183.068 52.706 183.978 51.926C184.914 51.146 186.279 50.418 188.073 49.742C189.867 49.066 192.259 48.52 195.249 48.104L195.912 49.118L194.625 52.472C193.351 51.796 191.882 51.458 190.218 51.458C189.412 51.458 188.645 51.562 187.917 51.77C187.189 51.978 186.591 52.329 186.123 52.823C185.655 53.317 185.421 53.993 185.421 54.851C185.421 55.605 185.668 56.32 186.162 56.996C186.656 57.646 187.28 58.296 188.034 58.946C188.814 59.57 189.633 60.207 190.491 60.857C191.349 61.507 192.155 62.196 192.909 62.924C193.689 63.626 194.326 64.393 194.82 65.225C195.314 66.057 195.561 66.967 195.561 67.955C195.561 68.579 195.418 69.307 195.132 70.139C194.846 70.945 194.326 71.725 193.572 72.479C192.818 73.233 191.752 73.857 190.374 74.351C188.996 74.845 187.215 75.092 185.031 75.092ZM204.55 75.287C204.368 75.287 204.277 75.248 204.277 75.17C204.615 73.168 204.836 71.231 204.94 69.359C205.07 67.487 205.135 65.693 205.135 63.977C205.135 63.197 205.109 62.157 205.057 60.857C205.031 59.557 204.979 58.205 204.901 56.801C204.849 55.371 204.771 54.071 204.667 52.901C204.329 52.927 203.991 52.94 203.653 52.94C203.341 52.94 203.016 52.94 202.678 52.94C201.3 52.94 199.909 52.823 198.505 52.589L197.881 51.575L199.363 48.221C200.299 48.715 201.365 49.066 202.561 49.274C203.757 49.456 205.057 49.547 206.461 49.547C208.125 49.547 209.724 49.43 211.258 49.196C212.792 48.962 214.027 48.728 214.963 48.494C215.067 48.494 215.119 48.611 215.119 48.845C215.119 49.027 215.067 49.287 214.963 49.625C214.859 49.937 214.716 50.171 214.534 50.327C213.52 50.743 212.519 51.12 211.531 51.458C210.543 51.796 209.555 52.082 208.567 52.316C208.489 53.876 208.385 55.67 208.255 57.698C208.151 59.7 207.995 61.767 207.787 63.899C207.605 66.005 207.384 68.007 207.124 69.905C206.864 71.803 206.565 73.415 206.227 74.741C206.045 74.923 205.772 75.053 205.408 75.131C205.044 75.235 204.758 75.287 204.55 75.287ZM218.747 75.287C218.539 75.287 218.435 75.235 218.435 75.131C218.721 73.285 218.916 71.504 219.02 69.788C219.124 68.072 219.176 66.421 219.176 64.835C219.176 63.093 219.137 61.26 219.059 59.336C218.981 57.412 218.851 55.501 218.669 53.603C218.513 51.705 218.305 49.937 218.045 48.299L219.059 47.597L222.569 49.391C222.543 50.769 222.478 52.355 222.374 54.149C222.296 55.917 222.192 57.776 222.062 59.726C221.958 61.65 221.828 63.548 221.672 65.42C221.516 67.292 221.334 69.034 221.126 70.646C220.944 72.232 220.749 73.571 220.541 74.663C220.385 74.845 220.099 74.988 219.683 75.092C219.267 75.222 218.955 75.287 218.747 75.287ZM234.181 75.248C232.517 75.248 231.087 74.78 229.891 73.844C228.721 72.908 227.824 71.608 227.2 69.944C226.576 68.254 226.264 66.33 226.264 64.172C226.264 62.56 226.537 60.896 227.083 59.18C227.655 57.438 228.565 55.774 229.813 54.188C231.061 52.602 232.725 51.224 234.805 50.054C236.885 48.884 239.446 48.065 242.488 47.597L243.151 48.611L241.864 51.965C241.448 51.913 241.045 51.874 240.655 51.848C240.291 51.822 239.927 51.809 239.563 51.809C237.639 51.809 236.04 52.134 234.766 52.784C233.492 53.408 232.491 54.24 231.763 55.28C231.035 56.294 230.515 57.399 230.203 58.595C229.891 59.791 229.735 60.935 229.735 62.027C229.735 64.289 229.969 66.148 230.437 67.604C230.931 69.06 231.568 70.139 232.348 70.841C233.128 71.517 233.934 71.855 234.766 71.855C236.586 71.855 238.081 71.14 239.251 69.71C240.447 68.254 241.448 66.109 242.254 63.275C242.306 63.067 242.397 62.963 242.527 62.963C242.657 62.963 242.826 63.002 243.034 63.08C243.268 63.158 243.502 63.301 243.736 63.509C243.372 65.979 242.683 68.098 241.669 69.866C240.681 71.608 239.524 72.947 238.198 73.883C236.872 74.793 235.533 75.248 234.181 75.248ZM249.168 75.092C248.44 75.092 247.738 75.053 247.062 74.975C246.412 74.923 245.58 74.741 244.566 74.429C244.436 74.221 244.332 73.974 244.254 73.688C244.176 73.376 244.137 73.155 244.137 73.025C244.137 72.843 244.15 72.752 244.176 72.752C244.358 72.752 244.748 72.856 245.346 73.064C245.97 73.246 246.841 73.337 247.959 73.337C250.169 73.337 251.95 72.895 253.302 72.011C254.654 71.127 255.33 69.996 255.33 68.618C255.33 67.682 255.005 66.811 254.355 66.005C253.731 65.173 252.938 64.38 251.976 63.626C251.04 62.872 250.091 62.105 249.129 61.325C248.193 60.545 247.4 59.726 246.75 58.868C246.126 58.01 245.814 57.074 245.814 56.06C245.814 55.54 245.97 54.916 246.282 54.188C246.594 53.46 247.205 52.706 248.115 51.926C249.051 51.146 250.416 50.418 252.21 49.742C254.004 49.066 256.396 48.52 259.386 48.104L260.049 49.118L258.762 52.472C257.488 51.796 256.019 51.458 254.355 51.458C253.549 51.458 252.782 51.562 252.054 51.77C251.326 51.978 250.728 52.329 250.26 52.823C249.792 53.317 249.558 53.993 249.558 54.851C249.558 55.605 249.805 56.32 250.299 56.996C250.793 57.646 251.417 58.296 252.171 58.946C252.951 59.57 253.77 60.207 254.628 60.857C255.486 61.507 256.292 62.196 257.046 62.924C257.826 63.626 258.463 64.393 258.957 65.225C259.451 66.057 259.698 66.967 259.698 67.955C259.698 68.579 259.555 69.307 259.269 70.139C258.983 70.945 258.463 71.725 257.709 72.479C256.955 73.233 255.889 73.857 254.511 74.351C253.133 74.845 251.352 75.092 249.168 75.092Z" fill="#221B04"/>
</svg>
