<svg width="254" height="301" viewBox="0 0 254 301" fill="none" xmlns="http://www.w3.org/2000/svg">
<path d="M0 85.2936C0 49.1105 29.3322 19.7782 65.5154 19.7782H231.719V150.809H65.5154C29.3323 150.809 0 121.477 0 85.2936V85.2936Z" fill="#4A3B0A"/>
<rect x="231.719" width="22.2807" height="301" fill="#4A3B0A"/>
<path d="M68.4153 48.8607C67.9113 48.8607 67.4253 48.8337 66.9573 48.7797C66.5073 48.7437 65.9313 48.6177 65.2293 48.4017C65.1393 48.2577 65.0673 48.0867 65.0133 47.8887C64.9593 47.6727 64.9323 47.5197 64.9323 47.4297C64.9323 47.3037 64.9413 47.2407 64.9593 47.2407C65.0853 47.2407 65.3553 47.3127 65.7693 47.4567C66.2013 47.5827 66.8043 47.6457 67.5783 47.6457C69.1083 47.6457 70.3413 47.3397 71.2773 46.7277C72.2133 46.1157 72.6813 45.3327 72.6813 44.3787C72.6813 43.7307 72.4563 43.1277 72.0063 42.5697C71.5743 41.9937 71.0253 41.4447 70.3593 40.9227C69.7113 40.4007 69.0543 39.8697 68.3883 39.3297C67.7403 38.7897 67.1913 38.2227 66.7413 37.6287C66.3093 37.0347 66.0933 36.3867 66.0933 35.6847C66.0933 35.3247 66.2013 34.8927 66.4173 34.3887C66.6333 33.8847 67.0563 33.3627 67.6863 32.8227C68.3343 32.2827 69.2793 31.7787 70.5213 31.3107C71.7633 30.8427 73.4193 30.4647 75.4893 30.1767L75.9483 30.8787L75.0573 33.2007C74.1753 32.7327 73.1583 32.4987 72.0063 32.4987C71.4483 32.4987 70.9173 32.5707 70.4133 32.7147C69.9093 32.8587 69.4953 33.1017 69.1713 33.4437C68.8473 33.7857 68.6853 34.2537 68.6853 34.8477C68.6853 35.3697 68.8563 35.8647 69.1983 36.3327C69.5403 36.7827 69.9723 37.2327 70.4943 37.6827C71.0343 38.1147 71.6013 38.5557 72.1953 39.0057C72.7893 39.4557 73.3473 39.9327 73.8693 40.4367C74.4093 40.9227 74.8503 41.4537 75.1923 42.0297C75.5343 42.6057 75.7053 43.2357 75.7053 43.9197C75.7053 44.3517 75.6063 44.8557 75.4083 45.4317C75.2103 45.9897 74.8503 46.5297 74.3283 47.0517C73.8063 47.5737 73.0683 48.0057 72.1143 48.3477C71.1603 48.6897 69.9273 48.8607 68.4153 48.8607ZM81.9282 48.9957C81.8022 48.9957 81.7392 48.9687 81.7392 48.9147C81.9732 47.5287 82.1262 46.1877 82.1982 44.8917C82.2882 43.5957 82.3332 42.3537 82.3332 41.1657C82.3332 40.6257 82.3152 39.9057 82.2792 39.0057C82.2612 38.1057 82.2252 37.1697 82.1712 36.1977C82.1352 35.2077 82.0812 34.3077 82.0092 33.4977C81.7752 33.5157 81.5412 33.5247 81.3072 33.5247C81.0912 33.5247 80.8662 33.5247 80.6322 33.5247C79.6782 33.5247 78.7152 33.4437 77.7432 33.2817L77.3112 32.5797L78.3372 30.2577C78.9852 30.5997 79.7232 30.8427 80.5512 30.9867C81.3792 31.1127 82.2792 31.1757 83.2512 31.1757C84.4032 31.1757 85.5102 31.0947 86.5722 30.9327C87.6342 30.7707 88.4892 30.6087 89.1372 30.4467C89.2092 30.4467 89.2452 30.5277 89.2452 30.6897C89.2452 30.8157 89.2092 30.9957 89.1372 31.2297C89.0652 31.4457 88.9662 31.6077 88.8402 31.7157C88.1382 32.0037 87.4452 32.2647 86.7612 32.4987C86.0772 32.7327 85.3932 32.9307 84.7092 33.0927C84.6552 34.1727 84.5832 35.4147 84.4932 36.8187C84.4212 38.2047 84.3132 39.6357 84.1692 41.1117C84.0432 42.5697 83.8902 43.9557 83.7102 45.2697C83.5302 46.5837 83.3232 47.6997 83.0892 48.6177C82.9632 48.7437 82.7742 48.8337 82.5222 48.8877C82.2702 48.9597 82.0722 48.9957 81.9282 48.9957ZM87.0204 49.0227C87.0024 49.0227 86.9484 49.0137 86.8584 48.9957C86.7504 48.9957 86.6964 48.9777 86.6964 48.9417C87.0564 48.2397 87.4704 47.3667 87.9384 46.3227C88.4064 45.2607 88.8924 44.1267 89.3964 42.9207C89.2344 42.8847 89.0634 42.8487 88.8834 42.8127C88.7214 42.7767 88.5504 42.7407 88.3704 42.7047C88.2444 42.5607 88.1454 42.3537 88.0734 42.0837C88.0014 41.7957 87.9654 41.6067 87.9654 41.5167C87.9654 41.3907 87.9924 41.3277 88.0464 41.3277C88.1544 41.3277 88.3524 41.3727 88.6404 41.4627C88.9464 41.5527 89.3604 41.6247 89.8824 41.6787C90.3684 40.4907 90.8364 39.2847 91.2864 38.0607C91.7544 36.8187 92.1774 35.6307 92.5554 34.4967C92.9334 33.3447 93.2394 32.3097 93.4734 31.3917L96.4434 29.8257C96.5874 29.8257 96.7854 29.8707 97.0374 29.9607C97.2894 30.0327 97.4874 30.1587 97.6314 30.3387C97.5774 30.8067 97.5414 31.2927 97.5234 31.7967C97.5054 32.2827 97.4964 32.7687 97.4964 33.2547C97.4964 34.7307 97.5774 36.2157 97.7394 37.7097C97.9014 39.1857 98.1084 40.6167 98.3604 42.0027C98.6124 43.3707 98.8734 44.6487 99.1434 45.8367C99.4314 47.0247 99.6924 48.0597 99.9264 48.9417C99.9264 48.9957 99.8544 49.0227 99.7104 49.0227C99.4404 49.0227 99.2244 48.9867 99.0624 48.9147C98.9004 48.8427 98.7654 48.7437 98.6574 48.6177C98.3694 47.9877 98.0454 47.1687 97.6854 46.1607C97.3434 45.1527 97.0014 44.0637 96.6594 42.8937C95.4354 43.0917 94.1934 43.1907 92.9334 43.1907C92.5914 43.1907 92.2674 43.1907 91.9614 43.1907C91.6554 43.1727 91.3494 43.1547 91.0434 43.1367C90.6294 44.0007 90.1884 44.8827 89.7204 45.7827C89.2524 46.6827 88.7484 47.6277 88.2084 48.6177C88.0644 48.7437 87.8934 48.8427 87.6954 48.9147C87.4974 48.9867 87.2724 49.0227 87.0204 49.0227ZM91.6914 41.7597C92.4114 41.7417 93.1584 41.6877 93.9324 41.5977C94.7064 41.5077 95.4624 41.3547 96.2004 41.1387C95.8764 39.9147 95.5884 38.6817 95.3364 37.4397C95.0844 36.1977 94.9044 35.0547 94.7964 34.0107C94.2744 35.4507 93.7614 36.8007 93.2574 38.0607C92.7534 39.3027 92.2314 40.5357 91.6914 41.7597ZM104.709 48.9957C104.583 48.9957 104.52 48.9687 104.52 48.9147C104.754 47.5287 104.907 46.1877 104.979 44.8917C105.069 43.5957 105.114 42.3537 105.114 41.1657C105.114 40.6257 105.096 39.9057 105.06 39.0057C105.042 38.1057 105.006 37.1697 104.952 36.1977C104.916 35.2077 104.862 34.3077 104.79 33.4977C104.556 33.5157 104.322 33.5247 104.088 33.5247C103.872 33.5247 103.647 33.5247 103.413 33.5247C102.459 33.5247 101.496 33.4437 100.524 33.2817L100.092 32.5797L101.118 30.2577C101.766 30.5997 102.504 30.8427 103.332 30.9867C104.16 31.1127 105.06 31.1757 106.032 31.1757C107.184 31.1757 108.291 31.0947 109.353 30.9327C110.415 30.7707 111.27 30.6087 111.918 30.4467C111.99 30.4467 112.026 30.5277 112.026 30.6897C112.026 30.8157 111.99 30.9957 111.918 31.2297C111.846 31.4457 111.747 31.6077 111.621 31.7157C110.919 32.0037 110.226 32.2647 109.542 32.4987C108.858 32.7327 108.174 32.9307 107.49 33.0927C107.436 34.1727 107.364 35.4147 107.274 36.8187C107.202 38.2047 107.094 39.6357 106.95 41.1117C106.824 42.5697 106.671 43.9557 106.491 45.2697C106.311 46.5837 106.104 47.6997 105.87 48.6177C105.744 48.7437 105.555 48.8337 105.303 48.8877C105.051 48.9597 104.853 48.9957 104.709 48.9957ZM114.538 48.9957C114.394 48.9957 114.322 48.9597 114.322 48.8877C114.52 47.6097 114.655 46.3767 114.727 45.1887C114.799 44.0007 114.835 42.8577 114.835 41.7597C114.835 40.5537 114.808 39.2847 114.754 37.9527C114.7 36.6207 114.61 35.2977 114.484 33.9837C114.376 32.6697 114.232 31.4457 114.052 30.3117L114.754 29.8257L117.184 31.0677C117.166 32.0217 117.121 33.1197 117.049 34.3617C116.995 35.5857 116.923 36.8727 116.833 38.2227C116.761 39.5547 116.671 40.8687 116.563 42.1647C116.455 43.4607 116.329 44.6667 116.185 45.7827C116.059 46.8807 115.924 47.8077 115.78 48.5637C115.672 48.6897 115.474 48.7887 115.186 48.8607C114.898 48.9507 114.682 48.9957 114.538 48.9957ZM122.415 48.8607C121.911 48.8607 121.425 48.8337 120.957 48.7797C120.507 48.7437 119.931 48.6177 119.229 48.4017C119.139 48.2577 119.067 48.0867 119.013 47.8887C118.959 47.6727 118.932 47.5197 118.932 47.4297C118.932 47.3037 118.941 47.2407 118.959 47.2407C119.085 47.2407 119.355 47.3127 119.769 47.4567C120.201 47.5827 120.804 47.6457 121.578 47.6457C123.108 47.6457 124.341 47.3397 125.277 46.7277C126.213 46.1157 126.681 45.3327 126.681 44.3787C126.681 43.7307 126.456 43.1277 126.006 42.5697C125.574 41.9937 125.025 41.4447 124.359 40.9227C123.711 40.4007 123.054 39.8697 122.388 39.3297C121.74 38.7897 121.191 38.2227 120.741 37.6287C120.309 37.0347 120.093 36.3867 120.093 35.6847C120.093 35.3247 120.201 34.8927 120.417 34.3887C120.633 33.8847 121.056 33.3627 121.686 32.8227C122.334 32.2827 123.279 31.7787 124.521 31.3107C125.763 30.8427 127.419 30.4647 129.489 30.1767L129.948 30.8787L129.057 33.2007C128.175 32.7327 127.158 32.4987 126.006 32.4987C125.448 32.4987 124.917 32.5707 124.413 32.7147C123.909 32.8587 123.495 33.1017 123.171 33.4437C122.847 33.7857 122.685 34.2537 122.685 34.8477C122.685 35.3697 122.856 35.8647 123.198 36.3327C123.54 36.7827 123.972 37.2327 124.494 37.6827C125.034 38.1147 125.601 38.5557 126.195 39.0057C126.789 39.4557 127.347 39.9327 127.869 40.4367C128.409 40.9227 128.85 41.4537 129.192 42.0297C129.534 42.6057 129.705 43.2357 129.705 43.9197C129.705 44.3517 129.606 44.8557 129.408 45.4317C129.21 45.9897 128.85 46.5297 128.328 47.0517C127.806 47.5737 127.068 48.0057 126.114 48.3477C125.16 48.6897 123.927 48.8607 122.415 48.8607ZM135.928 48.9957C135.802 48.9957 135.739 48.9687 135.739 48.9147C135.973 47.5287 136.126 46.1877 136.198 44.8917C136.288 43.5957 136.333 42.3537 136.333 41.1657C136.333 40.6257 136.315 39.9057 136.279 39.0057C136.261 38.1057 136.225 37.1697 136.171 36.1977C136.135 35.2077 136.081 34.3077 136.009 33.4977C135.775 33.5157 135.541 33.5247 135.307 33.5247C135.091 33.5247 134.866 33.5247 134.632 33.5247C133.678 33.5247 132.715 33.4437 131.743 33.2817L131.311 32.5797L132.337 30.2577C132.985 30.5997 133.723 30.8427 134.551 30.9867C135.379 31.1127 136.279 31.1757 137.251 31.1757C138.403 31.1757 139.51 31.0947 140.572 30.9327C141.634 30.7707 142.489 30.6087 143.137 30.4467C143.209 30.4467 143.245 30.5277 143.245 30.6897C143.245 30.8157 143.209 30.9957 143.137 31.2297C143.065 31.4457 142.966 31.6077 142.84 31.7157C142.138 32.0037 141.445 32.2647 140.761 32.4987C140.077 32.7327 139.393 32.9307 138.709 33.0927C138.655 34.1727 138.583 35.4147 138.493 36.8187C138.421 38.2047 138.313 39.6357 138.169 41.1117C138.043 42.5697 137.89 43.9557 137.71 45.2697C137.53 46.5837 137.323 47.6997 137.089 48.6177C136.963 48.7437 136.774 48.8337 136.522 48.8877C136.27 48.9597 136.072 48.9957 135.928 48.9957ZM145.757 48.9957C145.613 48.9957 145.541 48.9597 145.541 48.8877C145.739 47.6097 145.874 46.3767 145.946 45.1887C146.018 44.0007 146.054 42.8577 146.054 41.7597C146.054 40.5537 146.027 39.2847 145.973 37.9527C145.919 36.6207 145.829 35.2977 145.703 33.9837C145.595 32.6697 145.451 31.4457 145.271 30.3117L145.973 29.8257L148.403 31.0677C148.385 32.0217 148.34 33.1197 148.268 34.3617C148.214 35.5857 148.142 36.8727 148.052 38.2227C147.98 39.5547 147.89 40.8687 147.782 42.1647C147.674 43.4607 147.548 44.6667 147.404 45.7827C147.278 46.8807 147.143 47.8077 146.999 48.5637C146.891 48.6897 146.693 48.7887 146.405 48.8607C146.117 48.9507 145.901 48.9957 145.757 48.9957ZM156.442 48.9687C155.29 48.9687 154.3 48.6447 153.472 47.9967C152.662 47.3487 152.041 46.4487 151.609 45.2967C151.177 44.1267 150.961 42.7947 150.961 41.3007C150.961 40.1847 151.15 39.0327 151.528 37.8447C151.924 36.6387 152.554 35.4867 153.418 34.3887C154.282 33.2907 155.434 32.3367 156.874 31.5267C158.314 30.7167 160.087 30.1497 162.193 29.8257L162.652 30.5277L161.761 32.8497C161.473 32.8137 161.194 32.7867 160.924 32.7687C160.672 32.7507 160.42 32.7417 160.168 32.7417C158.836 32.7417 157.729 32.9667 156.847 33.4167C155.965 33.8487 155.272 34.4247 154.768 35.1447C154.264 35.8467 153.904 36.6117 153.688 37.4397C153.472 38.2677 153.364 39.0597 153.364 39.8157C153.364 41.3817 153.526 42.6687 153.85 43.6767C154.192 44.6847 154.633 45.4317 155.173 45.9177C155.713 46.3857 156.271 46.6197 156.847 46.6197C158.107 46.6197 159.142 46.1247 159.952 45.1347C160.78 44.1267 161.473 42.6417 162.031 40.6797C162.067 40.5357 162.13 40.4637 162.22 40.4637C162.31 40.4637 162.427 40.4907 162.571 40.5447C162.733 40.5987 162.895 40.6977 163.057 40.8417C162.805 42.5517 162.328 44.0187 161.626 45.2427C160.942 46.4487 160.141 47.3757 159.223 48.0237C158.305 48.6537 157.378 48.9687 156.442 48.9687ZM166.818 48.8607C166.314 48.8607 165.828 48.8337 165.36 48.7797C164.91 48.7437 164.334 48.6177 163.632 48.4017C163.542 48.2577 163.47 48.0867 163.416 47.8887C163.362 47.6727 163.335 47.5197 163.335 47.4297C163.335 47.3037 163.344 47.2407 163.362 47.2407C163.488 47.2407 163.758 47.3127 164.172 47.4567C164.604 47.5827 165.207 47.6457 165.981 47.6457C167.511 47.6457 168.744 47.3397 169.68 46.7277C170.616 46.1157 171.084 45.3327 171.084 44.3787C171.084 43.7307 170.859 43.1277 170.409 42.5697C169.977 41.9937 169.428 41.4447 168.762 40.9227C168.114 40.4007 167.457 39.8697 166.791 39.3297C166.143 38.7897 165.594 38.2227 165.144 37.6287C164.712 37.0347 164.496 36.3867 164.496 35.6847C164.496 35.3247 164.604 34.8927 164.82 34.3887C165.036 33.8847 165.459 33.3627 166.089 32.8227C166.737 32.2827 167.682 31.7787 168.924 31.3107C170.166 30.8427 171.822 30.4647 173.892 30.1767L174.351 30.8787L173.46 33.2007C172.578 32.7327 171.561 32.4987 170.409 32.4987C169.851 32.4987 169.32 32.5707 168.816 32.7147C168.312 32.8587 167.898 33.1017 167.574 33.4437C167.25 33.7857 167.088 34.2537 167.088 34.8477C167.088 35.3697 167.259 35.8647 167.601 36.3327C167.943 36.7827 168.375 37.2327 168.897 37.6827C169.437 38.1147 170.004 38.5557 170.598 39.0057C171.192 39.4557 171.75 39.9327 172.272 40.4367C172.812 40.9227 173.253 41.4537 173.595 42.0297C173.937 42.6057 174.108 43.2357 174.108 43.9197C174.108 44.3517 174.009 44.8557 173.811 45.4317C173.613 45.9897 173.253 46.5297 172.731 47.0517C172.209 47.5737 171.471 48.0057 170.517 48.3477C169.563 48.6897 168.33 48.8607 166.818 48.8607Z" fill="#221B04"/>
</svg>
